SplineFontDB: 3.2
FontName: regular
FullName: Jet Impulse Regular
FamilyName: Jet Impulse
Weight: Book
Copyright: 
Version: 1.0
DefaultBaseFilename: Jet Impulse
ItalicAngle: 0
UnderlinePosition: 77
UnderlineWidth: 51
Ascent: 819
Descent: 205
InvalidEm: 0
sfntRevision: 0x00010000
LayerCount: 2
Layer: 0 1 "Sfondo" 1
Layer: 1 1 "Fore" 0
XUID: [1021 394 1952875658 27451]
StyleMap: 0x0040
FSType: 4
OS2Version: 2
OS2_WeightWidthSlopeOnly: 0
OS2_UseTypoMetrics: 0
CreationTime: 1768523932
ModificationTime: 1770273922
PfmFamily: 81
TTFWeight: 400
TTFWidth: 5
LineGap: 0
VLineGap: 90
Panose: 0 0 4 0 0 0 0 0 0 0
OS2TypoAscent: 576
OS2TypoAOffset: 1
OS2TypoDescent: -64
OS2TypoDOffset: 1
OS2TypoLinegap: 0
OS2WinAscent: 704
OS2WinAOffset: 1
OS2WinDescent: 64
OS2WinDOffset: 1
HheadAscent: 704
HheadAOffset: 1
HheadDescent: -64
HheadDOffset: 1
OS2SubXSize: 512
OS2SubYSize: 512
OS2SubXOff: 0
OS2SubYOff: -32
OS2SupXSize: 512
OS2SupYSize: 512
OS2SupXOff: 0
OS2SupYOff: 512
OS2StrikeYSize: 51
OS2StrikeYPos: 204
OS2CapHeight: 576
OS2XHeight: 384
OS2Vendor: 'FSTR'
OS2CodePages: 00000193.00000000
OS2UnicodeRanges: 00000003.00000000.00000000.00000000
MarkAttachClasses: 1
DEI: 91125
LangName: 1033
Encoding: UnicodeBmp
UnicodeInterp: none
NameList: AGL For New Fonts
DisplaySize: -48
AntiAlias: 1
FitToEm: 0
WinInfo: 0 20 4
BeginPrivate: 0
EndPrivate
TeXData: 1 0 0 410624 205312 136868 488448 1048576 136868 783286 444596 497025 792723 393216 433062 380633 303038 157286 324010 404750 52429 2506097 1059062 262144
BeginChars: 65536 69

StartChar: ,
Encoding: 44 44 0
Width: 165
VWidth: 1000
Flags: W
LayerCount: 2
Fore
SplineSet
104.842773438 56.63671875 m 0,0,1
 104.842773438 -11.2451171875 104.842773438 -11.2451171875 93.3603515625 -44.375 c 128,-1,2
 81.876953125 -77.505859375 81.876953125 -77.505859375 55.265625 -89.9462890625 c 128,-1,3
 28.6533203125 -102.387695312 28.6533203125 -102.387695312 -26 -102.387695312 c 1,4,5
 -26 -80.3759765625 -26 -80.3759765625 -17.9140625 -71.0263671875 c 128,-1,6
 -9.828125 -61.67578125 -9.828125 -61.67578125 1.712890625 -60.365234375 c 128,-1,7
 13.2529296875 -59.0537109375 13.2529296875 -59.0537109375 24.79296875 -56.5654296875 c 128,-1,8
 36.333984375 -54.076171875 36.333984375 -54.076171875 44.419921875 -39.623046875 c 128,-1,9
 52.505859375 -25.1708984375 52.505859375 -25.1708984375 52.505859375 4.298828125 c 1,10,11
 31.015625 4.298828125 31.015625 4.298828125 15.591796875 19.31640625 c 128,-1,12
 0.16796875 34.3349609375 0.16796875 34.3349609375 0.16796875 56.63671875 c 0,13,14
 0.16796875 77.7724609375 0.16796875 77.7724609375 15.7685546875 93.373046875 c 128,-1,15
 31.3701171875 108.973632812 31.3701171875 108.973632812 52.505859375 108.973632812 c 0,16,17
 74.8076171875 108.973632812 74.8076171875 108.973632812 89.8251953125 93.5498046875 c 128,-1,18
 104.842773438 78.1259765625 104.842773438 78.1259765625 104.842773438 56.63671875 c 0,0,1
EndSplineSet
EndChar

StartChar: -
Encoding: 45 45 1
Width: 437
VWidth: 1000
Flags: W
LayerCount: 2
Fore
SplineSet
52.9619140625 217.85546875 m 2,0,1
 38.9580078125 217.85546875 38.9580078125 217.85546875 32.1044921875 218.33984375 c 128,-1,2
 25.25 218.82421875 25.25 218.82421875 16.3388671875 221.094726562 c 128,-1,3
 7.4267578125 223.366210938 7.4267578125 223.366210938 3.712890625 229.09765625 c 128,-1,4
 0 234.830078125 0 234.830078125 0 244.336914062 c 128,-1,5
 0 253.84375 0 253.84375 3.712890625 259.576171875 c 128,-1,6
 7.4267578125 265.307617188 7.4267578125 265.307617188 16.3388671875 267.579101562 c 128,-1,7
 25.25 269.849609375 25.25 269.849609375 32.1044921875 270.333984375 c 128,-1,8
 38.9580078125 270.818359375 38.9580078125 270.818359375 52.9619140625 270.818359375 c 2,9,-1
 321.84765625 270.818359375 l 2,10,11
 335.852539062 270.818359375 335.852539062 270.818359375 342.706054688 270.333984375 c 128,-1,12
 349.559570312 269.849609375 349.559570312 269.849609375 358.471679688 267.579101562 c 128,-1,13
 367.3828125 265.307617188 367.3828125 265.307617188 371.096679688 259.576171875 c 128,-1,14
 374.809570312 253.84375 374.809570312 253.84375 374.809570312 244.336914062 c 128,-1,15
 374.809570312 234.830078125 374.809570312 234.830078125 371.096679688 229.09765625 c 128,-1,16
 367.3828125 223.366210938 367.3828125 223.366210938 358.471679688 221.094726562 c 128,-1,17
 349.559570312 218.82421875 349.559570312 218.82421875 342.706054688 218.33984375 c 128,-1,18
 335.852539062 217.85546875 335.852539062 217.85546875 321.84765625 217.85546875 c 2,19,-1
 52.9619140625 217.85546875 l 2,0,1
EndSplineSet
EndChar

StartChar: .
Encoding: 46 46 2
Width: 165
VWidth: 1000
Flags: W
LayerCount: 2
Fore
SplineSet
52.1865234375 3.841796875 m 0,0,1
 31.111328125 3.841796875 31.111328125 3.841796875 15.5556640625 19.3974609375 c 128,-1,2
 0 34.953125 0 34.953125 0 56.0283203125 c 0,3,4
 0 78.451171875 0 78.451171875 15.478515625 94.3369140625 c 128,-1,5
 30.95703125 110.22265625 30.95703125 110.22265625 52.1865234375 110.22265625 c 0,6,7
 74.57421875 110.22265625 74.57421875 110.22265625 89.4736328125 94.517578125 c 128,-1,8
 104.373046875 78.8125 104.373046875 78.8125 104.373046875 56.0283203125 c 0,9,10
 104.373046875 34.6005859375 104.373046875 34.6005859375 89.3984375 19.220703125 c 128,-1,11
 74.423828125 3.841796875 74.423828125 3.841796875 52.1865234375 3.841796875 c 0,0,1
EndSplineSet
EndChar

StartChar: 0
Encoding: 48 48 3
Width: 595
VWidth: 1000
Flags: W
LayerCount: 2
Fore
SplineSet
321.372070312 3.6376953125 m 2,0,-1
 213.569335938 3.6376953125 l 2,1,2
 171.755859375 3.6376953125 171.755859375 3.6376953125 135.219726562 14.7041015625 c 128,-1,3
 98.68359375 25.771484375 98.68359375 25.771484375 67.48046875 49.0146484375 c 128,-1,4
 36.2763671875 72.2578125 36.2763671875 72.2578125 18.138671875 113.861328125 c 128,-1,5
 0 155.465820312 0 155.465820312 0 211.10546875 c 2,6,-1
 0 430.778320312 l 2,7,8
 0 488.595703125 0 488.595703125 18.1142578125 531.53125 c 128,-1,9
 36.228515625 574.466796875 36.228515625 574.466796875 67.50390625 598.2265625 c 128,-1,10
 98.779296875 621.986328125 98.779296875 621.986328125 135.196289062 633.166992188 c 128,-1,11
 171.61328125 644.34765625 171.61328125 644.34765625 213.569335938 644.34765625 c 2,12,-1
 321.372070312 644.34765625 l 2,13,14
 363.328125 644.34765625 363.328125 644.34765625 399.745117188 633.166992188 c 128,-1,15
 436.162109375 621.986328125 436.162109375 621.986328125 467.4375 598.2265625 c 128,-1,16
 498.712890625 574.466796875 498.712890625 574.466796875 516.828125 531.53125 c 128,-1,17
 534.942382812 488.595703125 534.942382812 488.595703125 534.942382812 430.778320312 c 2,18,-1
 534.942382812 217.208007812 l 2,19,20
 534.942382812 159.390625 534.942382812 159.390625 516.828125 116.455078125 c 128,-1,21
 498.712890625 73.5185546875 498.712890625 73.5185546875 467.4375 49.7587890625 c 128,-1,22
 436.162109375 25.9990234375 436.162109375 25.9990234375 399.745117188 14.818359375 c 128,-1,23
 363.328125 3.6376953125 363.328125 3.6376953125 321.372070312 3.6376953125 c 2,0,-1
63.0537109375 148.051757812 m 1,24,-1
 453.58203125 536.545898438 l 1,25,26
 413.918945312 591.463867188 413.918945312 591.463867188 321.372070312 591.463867188 c 2,27,-1
 213.569335938 591.463867188 l 2,28,29
 134.643554688 591.463867188 134.643554688 591.463867188 93.763671875 551.741210938 c 128,-1,30
 52.8837890625 512.017578125 52.8837890625 512.017578125 52.8837890625 436.879882812 c 2,31,-1
 52.8837890625 217.208007812 l 2,32,33
 52.8837890625 181.948242188 52.8837890625 181.948242188 63.0537109375 148.051757812 c 1,24,-1
81.359375 111.439453125 m 1,34,35
 121.022460938 56.521484375 121.022460938 56.521484375 213.569335938 56.521484375 c 2,36,-1
 321.372070312 56.521484375 l 2,37,38
 400.698242188 56.521484375 400.698242188 56.521484375 441.377929688 97.201171875 c 128,-1,39
 482.057617188 137.881835938 482.057617188 137.881835938 482.057617188 217.208007812 c 2,40,-1
 482.057617188 430.778320312 l 2,41,42
 482.057617188 466.037109375 482.057617188 466.037109375 471.887695312 499.93359375 c 1,43,-1
 81.359375 111.439453125 l 1,34,35
EndSplineSet
EndChar

StartChar: 1
Encoding: 49 49 4
Width: 221
VWidth: 1000
Flags: W
LayerCount: 2
Fore
SplineSet
0 644.34765625 m 1,0,-1
 160.685546875 644.34765625 l 1,1,-1
 160.685546875 3.6376953125 l 1,2,-1
 107.801757812 3.6376953125 l 1,3,-1
 107.801757812 591.463867188 l 1,4,-1
 0 591.463867188 l 1,5,-1
 0 644.34765625 l 1,0,-1
EndSplineSet
EndChar

StartChar: 2
Encoding: 50 50 5
Width: 543
VWidth: 1000
Flags: W
LayerCount: 2
Fore
SplineSet
0 592.16796875 m 1,0,-1
 321.84765625 592.16796875 l 2,1,2
 351.870117188 592.16796875 351.870117188 592.16796875 373.372070312 579.888671875 c 128,-1,3
 394.874023438 567.610351562 394.874023438 567.610351562 405.05859375 552.430664062 c 128,-1,4
 415.2421875 537.25 415.2421875 537.25 420.826171875 513.108398438 c 128,-1,5
 426.409179688 488.965820312 426.409179688 488.965820312 427.090820312 476.360351562 c 128,-1,6
 427.771484375 463.755859375 427.771484375 463.755859375 427.771484375 445.50390625 c 0,7,8
 427.771484375 428.71875 427.771484375 428.71875 427.04296875 419.577148438 c 128,-1,9
 426.314453125 410.434570312 426.314453125 410.434570312 420.873046875 395.458007812 c 128,-1,10
 415.432617188 380.482421875 415.432617188 380.482421875 405.010742188 372.513671875 c 128,-1,11
 394.58984375 364.544921875 394.58984375 364.544921875 373.419921875 358.172851562 c 128,-1,12
 352.25 351.80078125 352.25 351.80078125 321.84765625 351.80078125 c 2,13,-1
 160.923828125 351.80078125 l 2,14,15
 137.978515625 351.80078125 137.978515625 351.80078125 112.921875 345.5625 c 128,-1,16
 87.8642578125 339.32421875 87.8642578125 339.32421875 61.115234375 325.479492188 c 128,-1,17
 34.365234375 311.634765625 34.365234375 311.634765625 17.1826171875 283.497070312 c 128,-1,18
 0 255.360351562 0 255.360351562 0 217.358398438 c 2,19,-1
 0 3.47265625 l 1,20,-1
 374.809570312 3.47265625 l 2,21,22
 400.197265625 3.47265625 400.197265625 3.47265625 419.348632812 10.619140625 c 128,-1,23
 438.5 17.7666015625 438.5 17.7666015625 449.095703125 26.2021484375 c 128,-1,24
 459.69140625 34.6376953125 459.69140625 34.6376953125 482.770507812 56.4345703125 c 1,25,-1
 54.9990234375 56.4345703125 l 1,26,-1
 54.9990234375 217.358398438 l 2,27,28
 54.9990234375 241.576171875 54.9990234375 241.576171875 76.576171875 260.927734375 c 128,-1,29
 98.1533203125 280.279296875 98.1533203125 280.279296875 121.692382812 288.540039062 c 128,-1,30
 145.231445312 296.801757812 145.231445312 296.801757812 160.923828125 296.801757812 c 2,31,-1
 321.84765625 296.801757812 l 2,32,33
 405.59375 296.801757812 405.59375 296.801757812 444.181640625 325.92578125 c 128,-1,34
 482.770507812 355.048828125 482.770507812 355.048828125 482.770507812 431.244140625 c 2,35,-1
 482.770507812 484.20703125 l 2,36,37
 482.770507812 522.333984375 482.770507812 522.333984375 465.29296875 554.50390625 c 128,-1,38
 447.81640625 586.674804688 447.81640625 586.674804688 421.950195312 605.547851562 c 128,-1,39
 396.084960938 624.419921875 396.084960938 624.419921875 369.5546875 634.775390625 c 128,-1,40
 343.0234375 645.130859375 343.0234375 645.130859375 321.84765625 645.130859375 c 2,41,-1
 107.9609375 645.130859375 l 2,42,43
 82.5732421875 645.130859375 82.5732421875 645.130859375 63.421875 637.983398438 c 128,-1,44
 44.2705078125 630.836914062 44.2705078125 630.836914062 33.6748046875 622.401367188 c 128,-1,45
 23.080078125 613.965820312 23.080078125 613.965820312 0 592.16796875 c 1,0,-1
EndSplineSet
EndChar

StartChar: 3
Encoding: 51 51 6
Width: 543
VWidth: 1000
Flags: W
LayerCount: 2
Fore
SplineSet
429.80859375 351.717773438 m 1,0,-1
 0 351.717773438 l 1,1,-1
 0 296.71875 l 1,2,-1
 429.80859375 296.71875 l 1,3,-1
 429.80859375 164.3125 l 2,4,5
 429.80859375 151.520507812 429.80859375 151.520507812 429.119140625 142.377929688 c 128,-1,6
 428.428710938 133.236328125 428.428710938 133.236328125 422.725585938 115.408203125 c 128,-1,7
 417.021484375 97.5810546875 417.021484375 97.5810546875 406.663085938 86.189453125 c 128,-1,8
 396.303710938 74.798828125 396.303710938 74.798828125 374.358398438 65.5751953125 c 128,-1,9
 352.413085938 56.3515625 352.413085938 56.3515625 321.846679688 56.3515625 c 2,10,-1
 0 56.3515625 l 1,11,-1
 0 3.388671875 l 1,12,-1
 321.846679688 3.388671875 l 2,13,14
 482.770507812 3.388671875 482.770507812 3.388671875 482.770507812 164.3125 c 2,15,-1
 482.770507812 431.161132812 l 2,16,17
 482.770507812 510.604492188 482.770507812 510.604492188 415.549804688 577.826171875 c 128,-1,18
 348.328125 645.046875 348.328125 645.046875 268.884765625 645.046875 c 2,19,-1
 0 645.046875 l 1,20,-1
 0 592.084960938 l 1,21,-1
 268.884765625 592.084960938 l 2,22,23
 306.306640625 592.084960938 306.306640625 592.084960938 338.333007812 574.586914062 c 128,-1,24
 370.359375 557.088867188 370.359375 557.088867188 389.452148438 531.28515625 c 128,-1,25
 408.544921875 505.481445312 408.544921875 505.481445312 419.176757812 478.84765625 c 128,-1,26
 429.80859375 452.212890625 429.80859375 452.212890625 429.80859375 431.161132812 c 2,27,-1
 429.80859375 351.717773438 l 1,0,-1
EndSplineSet
EndChar

StartChar: 4
Encoding: 52 52 7
Width: 544
VWidth: 1000
Flags: W
LayerCount: 2
Fore
SplineSet
52.8837890625 325.009765625 m 2,0,-1
 52.8837890625 644.34765625 l 1,1,-1
 0 644.34765625 l 1,2,-1
 0 325.009765625 l 2,3,4
 0 283.821289062 0 283.821289062 33.306640625 250.514648438 c 128,-1,5
 66.61328125 217.208007812 66.61328125 217.208007812 107.801757812 217.208007812 c 2,6,-1
 429.173828125 217.208007812 l 1,7,-1
 429.173828125 3.6376953125 l 1,8,-1
 482.057617188 3.6376953125 l 1,9,-1
 482.057617188 644.34765625 l 1,10,-1
 429.173828125 644.34765625 l 1,11,-1
 429.173828125 270.091796875 l 1,12,-1
 107.801757812 270.091796875 l 2,13,14
 87.626953125 270.091796875 87.626953125 270.091796875 70.2548828125 287.040039062 c 128,-1,15
 52.8837890625 303.98828125 52.8837890625 303.98828125 52.8837890625 325.009765625 c 2,0,-1
EndSplineSet
EndChar

StartChar: 5
Encoding: 53 53 8
Width: 543
VWidth: 1000
Flags: W
LayerCount: 2
Fore
SplineSet
55 592.469726562 m 1,0,-1
 482.771484375 592.469726562 l 1,1,-1
 482.771484375 645.431640625 l 1,2,-1
 0 645.431640625 l 1,3,-1
 0 378.583984375 l 1,4,-1
 321.84765625 378.583984375 l 2,5,6
 361.911132812 378.583984375 361.911132812 378.583984375 395.860351562 345.05859375 c 128,-1,7
 429.809570312 311.534179688 429.809570312 311.534179688 429.809570312 270.622070312 c 2,8,-1
 429.809570312 164.697265625 l 2,9,10
 429.809570312 124.975585938 429.809570312 124.975585938 395.689453125 90.8564453125 c 128,-1,11
 361.569335938 56.736328125 361.569335938 56.736328125 321.84765625 56.736328125 c 2,12,-1
 0 56.736328125 l 1,13,14
 23.0810546875 34.9384765625 23.0810546875 34.9384765625 33.67578125 26.5029296875 c 128,-1,15
 44.2705078125 18.068359375 44.2705078125 18.068359375 63.4228515625 10.9208984375 c 128,-1,16
 82.57421875 3.7734375 82.57421875 3.7734375 107.961914062 3.7734375 c 2,17,-1
 321.84765625 3.7734375 l 2,18,19
 343.0234375 3.7734375 343.0234375 3.7734375 369.5546875 14.12890625 c 128,-1,20
 396.0859375 24.484375 396.0859375 24.484375 421.951171875 43.3564453125 c 128,-1,21
 447.817382812 62.2294921875 447.817382812 62.2294921875 465.293945312 94.400390625 c 128,-1,22
 482.771484375 126.5703125 482.771484375 126.5703125 482.771484375 164.697265625 c 2,23,-1
 482.771484375 270.622070312 l 2,24,25
 482.771484375 308.749023438 482.771484375 308.749023438 465.293945312 340.919921875 c 128,-1,26
 447.817382812 373.08984375 447.817382812 373.08984375 421.951171875 391.962890625 c 128,-1,27
 396.0859375 410.834960938 396.0859375 410.834960938 369.5546875 421.190429688 c 128,-1,28
 343.0234375 431.545898438 343.0234375 431.545898438 321.84765625 431.545898438 c 2,29,-1
 55 431.545898438 l 1,30,-1
 55 592.469726562 l 1,0,-1
EndSplineSet
EndChar

StartChar: 6
Encoding: 54 54 9
Width: 543
VWidth: 1000
Flags: W
LayerCount: 2
Fore
SplineSet
160.923828125 325.750976562 m 2,0,1
 121.202148438 325.750976562 121.202148438 325.750976562 87.0830078125 291.630859375 c 128,-1,2
 52.962890625 257.51171875 52.962890625 257.51171875 52.962890625 217.790039062 c 2,3,-1
 52.962890625 164.827148438 l 2,4,5
 52.962890625 125.10546875 52.962890625 125.10546875 87.0830078125 90.986328125 c 128,-1,6
 121.202148438 56.8662109375 121.202148438 56.8662109375 160.923828125 56.8662109375 c 2,7,-1
 321.84765625 56.8662109375 l 2,8,9
 361.569335938 56.8662109375 361.569335938 56.8662109375 395.689453125 90.986328125 c 128,-1,10
 429.809570312 125.10546875 429.809570312 125.10546875 429.809570312 164.827148438 c 2,11,-1
 429.809570312 217.790039062 l 2,12,13
 429.809570312 257.51171875 429.809570312 257.51171875 395.689453125 291.630859375 c 128,-1,14
 361.569335938 325.750976562 361.569335938 325.750976562 321.84765625 325.750976562 c 2,15,-1
 160.923828125 325.750976562 l 2,0,1
321.84765625 378.713867188 m 2,16,17
 343.0234375 378.713867188 343.0234375 378.713867188 369.5546875 368.358398438 c 128,-1,18
 396.0859375 358.002929688 396.0859375 358.002929688 421.951171875 339.130859375 c 128,-1,19
 447.817382812 320.2578125 447.817382812 320.2578125 465.293945312 288.086914062 c 128,-1,20
 482.771484375 255.916992188 482.771484375 255.916992188 482.771484375 217.790039062 c 2,21,-1
 482.771484375 164.827148438 l 2,22,23
 482.771484375 126.700195312 482.771484375 126.700195312 465.293945312 94.5302734375 c 128,-1,24
 447.817382812 62.359375 447.817382812 62.359375 421.951171875 43.4873046875 c 128,-1,25
 396.0859375 24.615234375 396.0859375 24.615234375 369.5546875 14.259765625 c 128,-1,26
 343.0234375 3.904296875 343.0234375 3.904296875 321.84765625 3.904296875 c 2,27,-1
 160.923828125 3.904296875 l 2,28,29
 139.748046875 3.904296875 139.748046875 3.904296875 113.216796875 14.259765625 c 128,-1,30
 86.685546875 24.615234375 86.685546875 24.615234375 60.8203125 43.4873046875 c 128,-1,31
 34.955078125 62.359375 34.955078125 62.359375 17.4775390625 94.5302734375 c 128,-1,32
 0 126.700195312 0 126.700195312 0 164.827148438 c 2,33,-1
 0 431.67578125 l 2,34,35
 0 489.579101562 0 489.579101562 18.1416015625 532.578125 c 128,-1,36
 36.283203125 575.577148438 36.283203125 575.577148438 67.6044921875 599.372070312 c 128,-1,37
 98.92578125 623.16796875 98.92578125 623.16796875 135.397460938 634.364257812 c 128,-1,38
 171.868164062 645.561523438 171.868164062 645.561523438 213.88671875 645.561523438 c 2,39,-1
 482.771484375 645.561523438 l 1,40,-1
 482.771484375 592.599609375 l 1,41,-1
 213.88671875 592.599609375 l 2,42,43
 134.443359375 592.599609375 134.443359375 592.599609375 93.703125 551.859375 c 128,-1,44
 52.962890625 511.119140625 52.962890625 511.119140625 52.962890625 431.67578125 c 2,45,-1
 52.962890625 378.713867188 l 1,46,-1
 321.84765625 378.713867188 l 2,16,17
EndSplineSet
EndChar

StartChar: 7
Encoding: 55 55 10
Width: 542
VWidth: 1000
Flags: W
LayerCount: 2
Fore
SplineSet
374.809570312 563.206054688 m 1,0,-1
 374.809570312 591.724609375 l 1,1,-1
 0 591.724609375 l 1,2,-1
 0 644.686523438 l 1,3,-1
 427.771484375 644.686523438 l 1,4,-1
 427.771484375 536.725585938 l 1,5,6
 375.053710938 510.86328125 375.053710938 510.86328125 325.133789062 424.29296875 c 128,-1,7
 275.213867188 337.72265625 275.213867188 337.72265625 244.549804688 222.743164062 c 128,-1,8
 213.885742188 107.763671875 213.885742188 107.763671875 213.885742188 3.0283203125 c 1,9,-1
 160.923828125 3.0283203125 l 1,10,11
 160.923828125 108.361328125 160.923828125 108.361328125 191.481445312 229.4609375 c 128,-1,12
 222.0390625 350.560546875 222.0390625 350.560546875 272.27734375 444.056640625 c 128,-1,13
 322.516601562 537.552734375 322.516601562 537.552734375 374.809570312 563.206054688 c 1,0,-1
EndSplineSet
EndChar

StartChar: 8
Encoding: 56 56 11
Width: 543
VWidth: 1000
Flags: W
LayerCount: 2
Fore
SplineSet
160.923828125 592.6171875 m 2,0,1
 121.202148438 592.6171875 121.202148438 592.6171875 87.08203125 558.497070312 c 128,-1,2
 52.9619140625 524.376953125 52.9619140625 524.376953125 52.9619140625 484.655273438 c 2,3,-1
 52.9619140625 431.693359375 l 2,4,5
 52.9619140625 394.288085938 52.9619140625 394.288085938 85.2998046875 373.26953125 c 128,-1,6
 117.63671875 352.25 117.63671875 352.25 160.923828125 352.25 c 2,7,-1
 321.84765625 352.25 l 2,8,9
 365.133789062 352.25 365.133789062 352.25 397.471679688 373.26953125 c 128,-1,10
 429.80859375 394.288085938 429.80859375 394.288085938 429.80859375 431.693359375 c 2,11,-1
 429.80859375 484.655273438 l 2,12,13
 429.80859375 524.376953125 429.80859375 524.376953125 395.688476562 558.497070312 c 128,-1,14
 361.569335938 592.6171875 361.569335938 592.6171875 321.84765625 592.6171875 c 2,15,-1
 160.923828125 592.6171875 l 2,0,1
160.923828125 297.25 m 2,16,17
 117.63671875 297.25 117.63671875 297.25 85.2998046875 276.23046875 c 128,-1,18
 52.9619140625 255.211914062 52.9619140625 255.211914062 52.9619140625 217.806640625 c 2,19,-1
 52.9619140625 164.844726562 l 2,20,21
 52.9619140625 125.123046875 52.9619140625 125.123046875 87.08203125 91.00390625 c 128,-1,22
 121.202148438 56.8837890625 121.202148438 56.8837890625 160.923828125 56.8837890625 c 2,23,-1
 321.84765625 56.8837890625 l 2,24,25
 361.569335938 56.8837890625 361.569335938 56.8837890625 395.688476562 91.00390625 c 128,-1,26
 429.80859375 125.123046875 429.80859375 125.123046875 429.80859375 164.844726562 c 2,27,-1
 429.80859375 217.806640625 l 2,28,29
 429.80859375 255.211914062 429.80859375 255.211914062 397.471679688 276.23046875 c 128,-1,30
 365.133789062 297.25 365.133789062 297.25 321.84765625 297.25 c 2,31,-1
 160.923828125 297.25 l 2,16,17
321.84765625 645.579101562 m 2,32,33
 343.0234375 645.579101562 343.0234375 645.579101562 369.5546875 635.223632812 c 128,-1,34
 396.084960938 624.868164062 396.084960938 624.868164062 421.950195312 605.99609375 c 128,-1,35
 447.81640625 587.124023438 447.81640625 587.124023438 465.29296875 554.953125 c 128,-1,36
 482.770507812 522.782226562 482.770507812 522.782226562 482.770507812 484.655273438 c 2,37,-1
 482.770507812 431.693359375 l 2,38,39
 482.770507812 391.803710938 482.770507812 391.803710938 449.330078125 358.786132812 c 128,-1,40
 415.889648438 325.768554688 415.889648438 325.768554688 374.809570312 325.768554688 c 1,41,42
 415.721679688 325.768554688 415.721679688 325.768554688 449.24609375 291.819335938 c 128,-1,43
 482.770507812 257.870117188 482.770507812 257.870117188 482.770507812 217.806640625 c 2,44,-1
 482.770507812 164.844726562 l 2,45,46
 482.770507812 126.717773438 482.770507812 126.717773438 465.29296875 94.5478515625 c 128,-1,47
 447.81640625 62.376953125 447.81640625 62.376953125 421.950195312 43.50390625 c 128,-1,48
 396.084960938 24.6318359375 396.084960938 24.6318359375 369.5546875 14.2763671875 c 128,-1,49
 343.0234375 3.9208984375 343.0234375 3.9208984375 321.84765625 3.9208984375 c 2,50,-1
 160.923828125 3.9208984375 l 2,51,52
 139.748046875 3.9208984375 139.748046875 3.9208984375 113.216796875 14.2763671875 c 128,-1,53
 86.685546875 24.6318359375 86.685546875 24.6318359375 60.8203125 43.50390625 c 128,-1,54
 34.9541015625 62.376953125 34.9541015625 62.376953125 17.4775390625 94.5478515625 c 128,-1,55
 0 126.717773438 0 126.717773438 0 164.844726562 c 2,56,-1
 0 217.806640625 l 2,57,58
 0 257.870117188 0 257.870117188 33.5244140625 291.819335938 c 128,-1,59
 67.048828125 325.768554688 67.048828125 325.768554688 107.9609375 325.768554688 c 1,60,61
 66.880859375 325.768554688 66.880859375 325.768554688 33.4404296875 358.786132812 c 128,-1,62
 0 391.803710938 0 391.803710938 0 431.693359375 c 2,63,-1
 0 484.655273438 l 2,64,65
 0 522.782226562 0 522.782226562 17.4775390625 554.953125 c 128,-1,66
 34.9541015625 587.123046875 34.9541015625 587.123046875 60.8203125 605.99609375 c 128,-1,67
 86.685546875 624.868164062 86.685546875 624.868164062 113.216796875 635.223632812 c 128,-1,68
 139.748046875 645.579101562 139.748046875 645.579101562 160.923828125 645.579101562 c 2,69,-1
 321.84765625 645.579101562 l 2,32,33
EndSplineSet
EndChar

StartChar: 9
Encoding: 57 57 12
Width: 545
VWidth: 1000
Flags: W
LayerCount: 2
Fore
SplineSet
321.84765625 323.71484375 m 2,0,1
 361.569335938 323.71484375 361.569335938 323.71484375 395.689453125 357.834960938 c 128,-1,2
 429.809570312 391.954101562 429.809570312 391.954101562 429.809570312 431.67578125 c 2,3,-1
 429.809570312 484.637695312 l 2,4,5
 429.809570312 524.359375 429.809570312 524.359375 395.689453125 558.479492188 c 128,-1,6
 361.5703125 592.599609375 361.5703125 592.599609375 321.84765625 592.599609375 c 2,7,-1
 160.923828125 592.599609375 l 2,8,9
 121.202148438 592.599609375 121.202148438 592.599609375 87.0830078125 558.479492188 c 128,-1,10
 52.962890625 524.359375 52.962890625 524.359375 52.962890625 484.637695312 c 2,11,-1
 52.962890625 431.67578125 l 2,12,13
 52.962890625 391.954101562 52.962890625 391.954101562 87.0830078125 357.834960938 c 128,-1,14
 121.202148438 323.71484375 121.202148438 323.71484375 160.923828125 323.71484375 c 2,15,-1
 321.84765625 323.71484375 l 2,0,1
160.923828125 270.751953125 m 2,16,17
 139.748046875 270.751953125 139.748046875 270.751953125 113.216796875 281.107421875 c 128,-1,18
 86.685546875 291.462890625 86.685546875 291.462890625 60.8203125 310.334960938 c 128,-1,19
 34.955078125 329.208007812 34.955078125 329.208007812 17.4775390625 361.37890625 c 128,-1,20
 0 393.548828125 0 393.548828125 0 431.67578125 c 2,21,-1
 0 484.637695312 l 2,22,23
 0 522.764648438 0 522.764648438 17.4775390625 554.935546875 c 128,-1,24
 34.955078125 587.106445312 34.955078125 587.106445312 60.8203125 605.978515625 c 128,-1,25
 86.685546875 624.850585938 86.685546875 624.850585938 113.216796875 635.206054688 c 128,-1,26
 139.748046875 645.561523438 139.748046875 645.561523438 160.923828125 645.561523438 c 2,27,-1
 321.84765625 645.561523438 l 2,28,29
 343.0234375 645.561523438 343.0234375 645.561523438 369.5546875 635.206054688 c 128,-1,30
 396.0859375 624.850585938 396.0859375 624.850585938 421.951171875 605.978515625 c 128,-1,31
 447.817382812 587.10546875 447.817382812 587.10546875 465.293945312 554.935546875 c 128,-1,32
 482.771484375 522.764648438 482.771484375 522.764648438 482.771484375 484.637695312 c 2,33,-1
 482.771484375 217.790039062 l 2,34,35
 482.771484375 159.88671875 482.771484375 159.88671875 464.629882812 116.887695312 c 128,-1,36
 446.489257812 73.888671875 446.489257812 73.888671875 415.16796875 50.09375 c 128,-1,37
 383.846679688 26.2978515625 383.846679688 26.2978515625 347.375 15.1015625 c 128,-1,38
 310.904296875 3.904296875 310.904296875 3.904296875 268.885742188 3.904296875 c 2,39,-1
 0 3.904296875 l 1,40,-1
 0 56.8662109375 l 1,41,-1
 268.885742188 56.8662109375 l 2,42,43
 348.329101562 56.8662109375 348.329101562 56.8662109375 389.069335938 97.6064453125 c 128,-1,44
 429.809570312 138.346679688 429.809570312 138.346679688 429.809570312 217.790039062 c 2,45,-1
 429.809570312 270.751953125 l 1,46,-1
 160.923828125 270.751953125 l 2,16,17
EndSplineSet
EndChar

StartChar: :
Encoding: 58 58 13
Width: 167
VWidth: 1000
Flags: W
LayerCount: 2
Fore
SplineSet
54.3544921875 3.607421875 m 0,0,1
 31.865234375 3.607421875 31.865234375 3.607421875 15.9326171875 19.1318359375 c 128,-1,2
 0 34.65625 0 34.65625 0 55.94921875 c 0,3,4
 0 78.59765625 0 78.59765625 15.853515625 94.4501953125 c 128,-1,5
 31.70703125 110.303710938 31.70703125 110.303710938 54.3544921875 110.303710938 c 0,6,7
 75.6474609375 110.303710938 75.6474609375 110.303710938 91.171875 94.37109375 c 128,-1,8
 106.696289062 78.4384765625 106.696289062 78.4384765625 106.696289062 55.94921875 c 0,9,10
 106.696289062 34.8115234375 106.696289062 34.8115234375 91.0947265625 19.208984375 c 128,-1,11
 75.4931640625 3.607421875 75.4931640625 3.607421875 54.3544921875 3.607421875 c 0,0,1
54.3544921875 319.670898438 m 0,12,13
 31.865234375 319.670898438 31.865234375 319.670898438 15.9326171875 335.1953125 c 128,-1,14
 0 350.719726562 0 350.719726562 0 372.012695312 c 0,15,16
 0 394.66015625 0 394.66015625 15.853515625 410.513671875 c 128,-1,17
 31.70703125 426.3671875 31.70703125 426.3671875 54.3544921875 426.3671875 c 0,18,19
 75.6474609375 426.3671875 75.6474609375 426.3671875 91.171875 410.434570312 c 128,-1,20
 106.696289062 394.500976562 106.696289062 394.500976562 106.696289062 372.012695312 c 0,21,22
 106.696289062 350.874023438 106.696289062 350.874023438 91.0947265625 335.272460938 c 128,-1,23
 75.4931640625 319.670898438 75.4931640625 319.670898438 54.3544921875 319.670898438 c 0,12,13
EndSplineSet
EndChar

StartChar: ;
Encoding: 59 59 14
Width: 167
VWidth: 1000
Flags: W
LayerCount: 2
Fore
SplineSet
100.576171875 56.310546875 m 0,0,1
 100.576171875 -11.4326171875 100.576171875 -11.4326171875 89.1171875 -44.4951171875 c 128,-1,2
 77.658203125 -77.5576171875 77.658203125 -77.5576171875 51.099609375 -89.9736328125 c 128,-1,3
 24.5419921875 -102.389648438 24.5419921875 -102.389648438 -30 -102.389648438 c 1,4,5
 -30 -80.4228515625 -30 -80.4228515625 -21.9306640625 -71.091796875 c 128,-1,6
 -13.8603515625 -61.7607421875 -13.8603515625 -61.7607421875 -2.34375 -60.4521484375 c 128,-1,7
 9.1728515625 -59.1435546875 9.1728515625 -59.1435546875 20.689453125 -56.66015625 c 128,-1,8
 32.2060546875 -54.1767578125 32.2060546875 -54.1767578125 40.2763671875 -39.7529296875 c 128,-1,9
 48.345703125 -25.330078125 48.345703125 -25.330078125 48.345703125 4.080078125 c 1,10,11
 25.7451171875 4.080078125 25.7451171875 4.080078125 10.9306640625 18.8955078125 c 128,-1,12
 -3.884765625 33.7109375 -3.884765625 33.7109375 -3.884765625 56.310546875 c 0,13,14
 -3.884765625 77.7568359375 -3.884765625 77.7568359375 11.1025390625 93.1484375 c 128,-1,15
 26.0888671875 108.541015625 26.0888671875 108.541015625 48.345703125 108.541015625 c 0,16,17
 69.4384765625 108.541015625 69.4384765625 108.541015625 85.0078125 92.97265625 c 128,-1,18
 100.576171875 77.4033203125 100.576171875 77.4033203125 100.576171875 56.310546875 c 0,0,1
48.345703125 319.471679688 m 0,19,20
 26.0888671875 319.471679688 26.0888671875 319.471679688 11.1025390625 334.864257812 c 128,-1,21
 -3.884765625 350.255859375 -3.884765625 350.255859375 -3.884765625 371.702148438 c 0,22,23
 -3.884765625 394.505859375 -3.884765625 394.505859375 11.02734375 410.223632812 c 128,-1,24
 25.9384765625 425.94140625 25.9384765625 425.94140625 48.345703125 425.94140625 c 0,25,26
 69.5927734375 425.94140625 69.5927734375 425.94140625 85.0849609375 410.041992188 c 128,-1,27
 100.576171875 394.143554688 100.576171875 394.143554688 100.576171875 371.702148438 c 0,28,29
 100.576171875 350.609375 100.576171875 350.609375 85.0078125 335.040039062 c 128,-1,30
 69.4384765625 319.471679688 69.4384765625 319.471679688 48.345703125 319.471679688 c 0,19,20
EndSplineSet
EndChar

StartChar: =
Encoding: 61 61 15
Width: 435
VWidth: 1000
Flags: W
LayerCount: 2
Fore
SplineSet
52.962890625 164.536132812 m 2,0,1
 38.9580078125 164.536132812 38.9580078125 164.536132812 32.1044921875 165.020507812 c 128,-1,2
 25.2509765625 165.504882812 25.2509765625 165.504882812 16.3388671875 167.775390625 c 128,-1,3
 7.4267578125 170.046875 7.4267578125 170.046875 3.712890625 175.778320312 c 128,-1,4
 0 181.510742188 0 181.510742188 0 191.017578125 c 128,-1,5
 0 200.524414062 0 200.524414062 3.712890625 206.255859375 c 128,-1,6
 7.4267578125 211.987304688 7.4267578125 211.987304688 16.3388671875 214.258789062 c 128,-1,7
 25.2509765625 216.529296875 25.2509765625 216.529296875 32.1044921875 217.013671875 c 128,-1,8
 38.9580078125 217.498046875 38.9580078125 217.498046875 52.962890625 217.498046875 c 2,9,-1
 321.84765625 217.498046875 l 2,10,11
 335.852539062 217.498046875 335.852539062 217.498046875 342.706054688 217.013671875 c 128,-1,12
 349.559570312 216.529296875 349.559570312 216.529296875 358.471679688 214.258789062 c 128,-1,13
 367.3828125 211.987304688 367.3828125 211.987304688 371.096679688 206.255859375 c 128,-1,14
 374.809570312 200.524414062 374.809570312 200.524414062 374.809570312 191.017578125 c 128,-1,15
 374.809570312 181.510742188 374.809570312 181.510742188 371.096679688 175.778320312 c 128,-1,16
 367.3828125 170.046875 367.3828125 170.046875 358.471679688 167.775390625 c 128,-1,17
 349.559570312 165.504882812 349.559570312 165.504882812 342.706054688 165.020507812 c 128,-1,18
 335.852539062 164.536132812 335.852539062 164.536132812 321.84765625 164.536132812 c 2,19,-1
 52.962890625 164.536132812 l 2,0,1
52.962890625 378.421875 m 2,20,21
 38.9580078125 378.421875 38.9580078125 378.421875 32.1044921875 378.90625 c 128,-1,22
 25.2509765625 379.390625 25.2509765625 379.390625 16.3388671875 381.661132812 c 128,-1,23
 7.4267578125 383.932617188 7.4267578125 383.932617188 3.712890625 389.6640625 c 128,-1,24
 0 395.396484375 0 395.396484375 0 404.903320312 c 128,-1,25
 0 414.41015625 0 414.41015625 3.712890625 420.142578125 c 128,-1,26
 7.4267578125 425.874023438 7.4267578125 425.874023438 16.3388671875 428.145507812 c 128,-1,27
 25.2509765625 430.416015625 25.2509765625 430.416015625 32.1044921875 430.900390625 c 128,-1,28
 38.9580078125 431.384765625 38.9580078125 431.384765625 52.962890625 431.384765625 c 2,29,-1
 321.84765625 431.384765625 l 2,30,31
 335.852539062 431.384765625 335.852539062 431.384765625 342.706054688 430.900390625 c 128,-1,32
 349.559570312 430.416015625 349.559570312 430.416015625 358.471679688 428.145507812 c 128,-1,33
 367.3828125 425.874023438 367.3828125 425.874023438 371.096679688 420.142578125 c 128,-1,34
 374.809570312 414.41015625 374.809570312 414.41015625 374.809570312 404.903320312 c 128,-1,35
 374.809570312 395.396484375 374.809570312 395.396484375 371.096679688 389.6640625 c 128,-1,36
 367.3828125 383.932617188 367.3828125 383.932617188 358.471679688 381.661132812 c 128,-1,37
 349.559570312 379.390625 349.559570312 379.390625 342.706054688 378.90625 c 128,-1,38
 335.852539062 378.421875 335.852539062 378.421875 321.84765625 378.421875 c 2,39,-1
 52.962890625 378.421875 l 2,20,21
EndSplineSet
EndChar

StartChar: A
Encoding: 65 65 16
Width: 543
VWidth: 1000
Flags: W
LayerCount: 2
Fore
SplineSet
118.146484375 270.48046875 m 1,0,-1
 52.9619140625 83.0751953125 l 1,1,-1
 52.9619140625 3.6318359375 l 1,2,-1
 0 3.6318359375 l 1,3,-1
 0 56.59375 l 1,4,-1
 201.6640625 645.290039062 l 1,5,-1
 281.107421875 645.290039062 l 1,6,-1
 482.771484375 56.59375 l 1,7,-1
 482.771484375 3.6318359375 l 1,8,-1
 429.80859375 3.6318359375 l 1,9,-1
 429.80859375 83.0751953125 l 1,10,-1
 364.625 270.48046875 l 1,11,-1
 118.146484375 270.48046875 l 1,0,-1
136.479492188 325.479492188 m 1,12,-1
 346.291015625 325.479492188 l 1,13,-1
 254.625976562 592.327148438 l 1,14,-1
 228.14453125 592.327148438 l 1,15,-1
 136.479492188 325.479492188 l 1,12,-1
EndSplineSet
EndChar

StartChar: B
Encoding: 66 66 17
Width: 543
VWidth: 1000
Flags: W
LayerCount: 2
Fore
SplineSet
268.885742188 351.4921875 m 2,0,1
 351.283203125 351.4921875 351.283203125 351.4921875 390.545898438 375.569335938 c 128,-1,2
 429.809570312 399.645507812 429.809570312 399.645507812 429.809570312 457.416992188 c 0,3,4
 429.809570312 518.685546875 429.809570312 518.685546875 388.108398438 555.272460938 c 128,-1,5
 346.407226562 591.859375 346.407226562 591.859375 268.885742188 591.859375 c 2,6,-1
 52.962890625 591.859375 l 1,7,-1
 52.962890625 351.4921875 l 1,8,-1
 268.885742188 351.4921875 l 2,0,1
52.962890625 296.493164062 m 1,9,-1
 52.962890625 56.1259765625 l 1,10,-1
 321.84765625 56.1259765625 l 2,11,12
 352.725585938 56.1259765625 352.725585938 56.1259765625 374.3984375 65.7734375 c 128,-1,13
 396.0703125 75.4208984375 396.0703125 75.4208984375 406.625 87.447265625 c 128,-1,14
 417.178710938 99.4736328125 417.178710938 99.4736328125 422.765625 121.114257812 c 128,-1,15
 428.3515625 142.755859375 428.3515625 142.755859375 429.081054688 155.499023438 c 128,-1,16
 429.809570312 168.243164062 429.809570312 168.243164062 429.809570312 190.568359375 c 0,17,18
 429.809570312 230.125 429.809570312 230.125 395.774414062 263.309570312 c 128,-1,19
 361.739257812 296.493164062 361.739257812 296.493164062 321.84765625 296.493164062 c 2,20,-1
 52.962890625 296.493164062 l 1,9,-1
268.885742188 644.822265625 m 2,21,22
 323.986328125 644.822265625 323.986328125 644.822265625 371.440429688 627.702148438 c 128,-1,23
 418.895507812 610.58203125 418.895507812 610.58203125 450.833007812 572.9921875 c 128,-1,24
 482.771484375 535.403320312 482.771484375 535.403320312 482.771484375 483.8984375 c 0,25,26
 482.771484375 444.955078125 482.771484375 444.955078125 478.717773438 420.299804688 c 128,-1,27
 474.6640625 395.645507812 474.6640625 395.645507812 461.712890625 377.724609375 c 128,-1,28
 448.76171875 359.803710938 448.76171875 359.803710938 438.168945312 351.168945312 c 128,-1,29
 427.576171875 342.534179688 427.576171875 342.534179688 401.291015625 325.01171875 c 1,30,31
 423.321289062 309.508789062 423.321289062 309.508789062 431.577148438 303.087890625 c 128,-1,32
 439.833007812 296.66796875 439.833007812 296.66796875 453.040039062 282.646484375 c 128,-1,33
 466.24609375 268.624023438 466.24609375 268.624023438 470.623046875 254.8515625 c 128,-1,34
 474.999023438 241.079101562 474.999023438 241.079101562 478.884765625 218.276367188 c 128,-1,35
 482.771484375 195.473632812 482.771484375 195.473632812 482.771484375 164.087890625 c 0,36,37
 482.771484375 80.48828125 482.771484375 80.48828125 434.536132812 41.826171875 c 128,-1,38
 386.299804688 3.1640625 386.299804688 3.1640625 268.885742188 3.1640625 c 2,39,-1
 0 3.1640625 l 1,40,-1
 0 644.822265625 l 1,41,-1
 268.885742188 644.822265625 l 2,21,22
EndSplineSet
EndChar

StartChar: C
Encoding: 67 67 18
Width: 543
VWidth: 1000
Flags: W
LayerCount: 2
Fore
SplineSet
0 217.66015625 m 2,0,-1
 0 431.545898438 l 2,1,2
 0 473.564453125 0 473.564453125 11.197265625 510.03515625 c 128,-1,3
 22.39453125 546.506835938 22.39453125 546.506835938 46.189453125 577.828125 c 128,-1,4
 69.9853515625 609.149414062 69.9853515625 609.149414062 112.984375 627.290039062 c 128,-1,5
 155.983398438 645.431640625 155.983398438 645.431640625 213.88671875 645.431640625 c 2,6,-1
 374.810546875 645.431640625 l 2,7,8
 414.532226562 645.431640625 414.532226562 645.431640625 428.02734375 638.811523438 c 128,-1,9
 441.522460938 632.19140625 441.522460938 632.19140625 482.771484375 592.469726562 c 1,10,-1
 213.88671875 592.469726562 l 2,11,12
 134.443359375 592.469726562 134.443359375 592.469726562 93.703125 551.729492188 c 128,-1,13
 52.962890625 510.989257812 52.962890625 510.989257812 52.962890625 431.545898438 c 2,14,-1
 52.962890625 217.66015625 l 2,15,16
 52.962890625 138.216796875 52.962890625 138.216796875 93.703125 97.4765625 c 128,-1,17
 134.443359375 56.736328125 134.443359375 56.736328125 213.88671875 56.736328125 c 2,18,-1
 482.771484375 56.736328125 l 1,19,20
 441.522460938 17.0146484375 441.522460938 17.0146484375 428.02734375 10.3935546875 c 128,-1,21
 414.532226562 3.7734375 414.532226562 3.7734375 374.810546875 3.7734375 c 2,22,-1
 213.88671875 3.7734375 l 2,23,24
 155.983398438 3.7734375 155.983398438 3.7734375 112.984375 21.9150390625 c 128,-1,25
 69.9853515625 40.056640625 69.9853515625 40.056640625 46.189453125 71.3779296875 c 128,-1,26
 22.39453125 102.69921875 22.39453125 102.69921875 11.197265625 139.170898438 c 128,-1,27
 0 175.641601562 0 175.641601562 0 217.66015625 c 2,0,-1
EndSplineSet
EndChar

StartChar: D
Encoding: 68 68 19
Width: 543
VWidth: 1000
Flags: W
LayerCount: 2
Fore
SplineSet
0 645.549804688 m 1,0,-1
 0 3.8916015625 l 1,1,-1
 268.884765625 3.8916015625 l 2,2,3
 389.578125 3.8916015625 389.578125 3.8916015625 436.174804688 50.48828125 c 128,-1,4
 482.771484375 97.0849609375 482.771484375 97.0849609375 482.771484375 217.77734375 c 2,5,-1
 482.771484375 378.701171875 l 2,6,7
 482.771484375 455.247070312 482.771484375 455.247070312 435.666015625 517.51171875 c 128,-1,8
 388.560546875 579.776367188 388.560546875 579.776367188 315.3125 612.663085938 c 128,-1,9
 242.063476562 645.549804688 242.063476562 645.549804688 160.923828125 645.549804688 c 2,10,-1
 0 645.549804688 l 1,0,-1
213.885742188 592.587890625 m 2,11,12
 294.686523438 592.587890625 294.686523438 592.587890625 362.247070312 525.451171875 c 128,-1,13
 429.80859375 458.314453125 429.80859375 458.314453125 429.80859375 378.701171875 c 2,14,-1
 429.80859375 191.296875 l 2,15,16
 429.80859375 131.713867188 429.80859375 131.713867188 392.37890625 94.2841796875 c 128,-1,17
 354.948242188 56.853515625 354.948242188 56.853515625 295.366210938 56.853515625 c 2,18,-1
 52.9619140625 56.853515625 l 1,19,-1
 52.9619140625 592.587890625 l 1,20,-1
 213.885742188 592.587890625 l 2,11,12
EndSplineSet
EndChar

StartChar: E
Encoding: 69 69 20
Width: 543
VWidth: 1000
Flags: W
LayerCount: 2
Fore
SplineSet
0 3.962890625 m 1,0,-1
 0 645.62109375 l 1,1,-1
 482.771484375 645.62109375 l 1,2,-1
 482.771484375 592.658203125 l 1,3,-1
 52.9619140625 592.658203125 l 1,4,-1
 52.9619140625 352.291015625 l 1,5,-1
 482.771484375 352.291015625 l 1,6,-1
 482.771484375 297.291992188 l 1,7,-1
 52.9619140625 297.291992188 l 1,8,-1
 52.9619140625 56.9248046875 l 1,9,-1
 482.771484375 56.9248046875 l 1,10,-1
 482.771484375 3.962890625 l 1,11,-1
 0 3.962890625 l 1,0,-1
EndSplineSet
EndChar

StartChar: F
Encoding: 70 70 21
Width: 543
VWidth: 1000
Flags: W
LayerCount: 2
Fore
SplineSet
0 3.453125 m 1,0,-1
 0 645.111328125 l 1,1,-1
 482.771484375 645.111328125 l 1,2,-1
 482.771484375 592.1484375 l 1,3,-1
 52.9619140625 592.1484375 l 1,4,-1
 52.9619140625 351.78125 l 1,5,-1
 482.771484375 351.78125 l 1,6,-1
 482.771484375 296.782226562 l 1,7,-1
 52.9619140625 296.782226562 l 1,8,-1
 52.9619140625 3.453125 l 1,9,-1
 0 3.453125 l 1,0,-1
EndSplineSet
EndChar

StartChar: G
Encoding: 71 71 22
Width: 543
VWidth: 1000
Flags: W
LayerCount: 2
Fore
SplineSet
0 217.571289062 m 2,0,-1
 0 431.458007812 l 2,1,2
 0 473.475585938 0 473.475585938 11.197265625 509.947265625 c 128,-1,3
 22.39453125 546.41796875 22.39453125 546.41796875 46.189453125 577.739257812 c 128,-1,4
 69.9853515625 609.060546875 69.9853515625 609.060546875 112.984375 627.202148438 c 128,-1,5
 155.983398438 645.34375 155.983398438 645.34375 213.88671875 645.34375 c 2,6,-1
 482.771484375 645.34375 l 1,7,-1
 482.771484375 592.381835938 l 1,8,-1
 213.88671875 592.381835938 l 2,9,10
 134.443359375 592.381835938 134.443359375 592.381835938 93.703125 551.641601562 c 128,-1,11
 52.962890625 510.901367188 52.962890625 510.901367188 52.962890625 431.458007812 c 2,12,-1
 52.962890625 217.571289062 l 2,13,14
 52.962890625 138.127929688 52.962890625 138.127929688 93.703125 97.3876953125 c 128,-1,15
 134.443359375 56.6474609375 134.443359375 56.6474609375 213.88671875 56.6474609375 c 2,16,-1
 321.84765625 56.6474609375 l 2,17,18
 361.569335938 56.6474609375 361.569335938 56.6474609375 395.689453125 90.767578125 c 128,-1,19
 429.809570312 124.887695312 429.809570312 124.887695312 429.809570312 164.609375 c 2,20,-1
 429.809570312 297.014648438 l 1,21,-1
 268.885742188 297.014648438 l 1,22,-1
 268.885742188 352.014648438 l 1,23,-1
 482.771484375 352.014648438 l 1,24,-1
 482.771484375 164.609375 l 2,25,26
 482.771484375 3.685546875 482.771484375 3.685546875 321.84765625 3.685546875 c 2,27,-1
 213.88671875 3.685546875 l 2,28,29
 93.193359375 3.685546875 93.193359375 3.685546875 46.5966796875 50.2822265625 c 128,-1,30
 0 96.87890625 0 96.87890625 0 217.571289062 c 2,0,-1
EndSplineSet
EndChar

StartChar: H
Encoding: 72 72 23
Width: 543
VWidth: 1000
Flags: W
LayerCount: 2
Fore
SplineSet
0 3.2763671875 m 1,0,-1
 0 644.934570312 l 1,1,-1
 52.962890625 644.934570312 l 1,2,-1
 52.962890625 378.0859375 l 1,3,-1
 429.809570312 378.0859375 l 1,4,-1
 429.809570312 644.934570312 l 1,5,-1
 482.771484375 644.934570312 l 1,6,-1
 482.771484375 3.2763671875 l 1,7,-1
 429.809570312 3.2763671875 l 1,8,-1
 429.809570312 325.124023438 l 1,9,-1
 52.962890625 325.124023438 l 1,10,-1
 52.962890625 3.2763671875 l 1,11,-1
 0 3.2763671875 l 1,0,-1
EndSplineSet
EndChar

StartChar: I
Encoding: 73 73 24
Width: 113
VWidth: 1000
Flags: W
LayerCount: 2
Fore
SplineSet
52.9619140625 3.0341796875 m 1,0,-1
 0 3.0341796875 l 1,1,-1
 0 644.69140625 l 1,2,-1
 52.9619140625 644.69140625 l 1,3,-1
 52.9619140625 3.0341796875 l 1,0,-1
EndSplineSet
EndChar

StartChar: J
Encoding: 74 74 25
Width: 435
Flags: W
LayerCount: 2
Fore
SplineSet
0 7.341796875 m 1,0,-1
 0 60.3046875 l 1,1,-1
 107.961914062 60.3046875 l 2,2,3
 187.405273438 60.3046875 187.405273438 60.3046875 254.625976562 127.525390625 c 128,-1,4
 321.84765625 194.747070312 321.84765625 194.747070312 321.84765625 274.190429688 c 2,5,-1
 321.84765625 596.038085938 l 1,6,-1
 213.885742188 596.038085938 l 1,7,-1
 213.885742188 649 l 1,8,-1
 374.809570312 649 l 1,9,-1
 374.809570312 274.190429688 l 2,10,11
 374.809570312 217.43359375 374.809570312 217.43359375 348.114257812 165.935546875 c 128,-1,12
 321.419921875 114.438476562 321.419921875 114.438476562 281.002929688 80.712890625 c 128,-1,13
 240.5859375 46.9873046875 240.5859375 46.9873046875 194.448242188 27.1640625 c 128,-1,14
 148.310546875 7.341796875 148.310546875 7.341796875 107.961914062 7.341796875 c 2,15,-1
 0 7.341796875 l 1,0,-1
EndSplineSet
EndChar

StartChar: K
Encoding: 75 75 26
Width: 435
VWidth: 1000
Flags: W
LayerCount: 2
Fore
SplineSet
0 3.53125 m 1,0,-1
 0 645.189453125 l 1,1,-1
 52.962890625 645.189453125 l 1,2,-1
 52.962890625 323.341796875 l 1,3,-1
 374.810546875 645.189453125 l 1,4,-1
 374.810546875 590.190429688 l 1,5,-1
 107.961914062 323.341796875 l 1,6,-1
 160.923828125 323.341796875 l 2,7,8
 215.922851562 323.341796875 215.922851562 323.341796875 263.454101562 306.290039062 c 128,-1,9
 310.984375 289.237304688 310.984375 289.237304688 342.897460938 252.124023438 c 128,-1,10
 374.810546875 215.009765625 374.810546875 215.009765625 374.810546875 164.455078125 c 2,11,-1
 374.810546875 3.53125 l 1,12,-1
 321.84765625 3.53125 l 1,13,-1
 321.84765625 164.455078125 l 2,14,15
 321.84765625 204.010742188 321.84765625 204.010742188 287.8125 237.1953125 c 128,-1,16
 253.77734375 270.379882812 253.77734375 270.379882812 213.88671875 270.379882812 c 2,17,-1
 52.962890625 270.379882812 l 1,18,-1
 52.962890625 3.53125 l 1,19,-1
 0 3.53125 l 1,0,-1
EndSplineSet
EndChar

StartChar: L
Encoding: 76 76 27
Width: 435
VWidth: 1000
Flags: W
LayerCount: 2
Fore
SplineSet
0 3.8037109375 m 1,0,-1
 0 645.4609375 l 1,1,-1
 52.9619140625 645.4609375 l 1,2,-1
 52.9619140625 56.765625 l 1,3,-1
 374.809570312 56.765625 l 1,4,-1
 374.809570312 3.8037109375 l 1,5,-1
 0 3.8037109375 l 1,0,-1
EndSplineSet
EndChar

StartChar: M
Encoding: 77 77 28
Width: 543
VWidth: 1000
Flags: W
LayerCount: 2
Fore
SplineSet
52.9619140625 3.703125 m 1,0,-1
 0 3.703125 l 1,1,-1
 0 645.361328125 l 1,2,-1
 26.4814453125 645.361328125 l 1,3,-1
 240.3671875 217.588867188 l 1,4,-1
 456.290039062 645.361328125 l 1,5,-1
 482.771484375 645.361328125 l 1,6,-1
 482.771484375 3.703125 l 1,7,-1
 429.80859375 3.703125 l 1,8,-1
 429.80859375 484.4375 l 1,9,-1
 242.404296875 111.6640625 l 1,10,-1
 52.9619140625 484.4375 l 1,11,-1
 52.9619140625 3.703125 l 1,0,-1
EndSplineSet
EndChar

StartChar: N
Encoding: 78 78 29
Width: 543
VWidth: 1000
Flags: W
LayerCount: 2
Fore
SplineSet
52.9619140625 592.327148438 m 1,0,-1
 52.9619140625 3.6318359375 l 1,1,-1
 0 3.6318359375 l 1,2,-1
 0 645.290039062 l 1,3,-1
 213.885742188 645.290039062 l 2,4,5
 271.362304688 645.290039062 271.362304688 645.290039062 323.310546875 618.6015625 c 128,-1,6
 375.258789062 591.9140625 375.258789062 591.9140625 409.153320312 551.4765625 c 128,-1,7
 443.047851562 511.0390625 443.047851562 511.0390625 462.909179688 464.934570312 c 128,-1,8
 482.771484375 418.830078125 482.771484375 418.830078125 482.771484375 378.44140625 c 2,9,-1
 482.771484375 3.6318359375 l 1,10,-1
 429.80859375 3.6318359375 l 1,11,-1
 429.80859375 378.44140625 l 2,12,13
 429.80859375 458.0546875 429.80859375 458.0546875 362.247070312 525.19140625 c 128,-1,14
 294.686523438 592.327148438 294.686523438 592.327148438 213.885742188 592.327148438 c 2,15,-1
 52.9619140625 592.327148438 l 1,0,-1
EndSplineSet
EndChar

StartChar: O
Encoding: 79 79 30
Width: 543
VWidth: 1000
Flags: W
LayerCount: 2
Fore
SplineSet
482.771484375 431.5390625 m 2,0,1
 482.771484375 489.442382812 482.771484375 489.442382812 464.629882812 532.44140625 c 128,-1,2
 446.489257812 575.440429688 446.489257812 575.440429688 415.16796875 599.235351562 c 128,-1,3
 383.846679688 623.03125 383.846679688 623.03125 347.375 634.227539062 c 128,-1,4
 310.904296875 645.424804688 310.904296875 645.424804688 268.885742188 645.424804688 c 2,5,-1
 213.88671875 645.424804688 l 2,6,7
 171.868164062 645.424804688 171.868164062 645.424804688 135.397460938 634.227539062 c 128,-1,8
 98.92578125 623.03125 98.92578125 623.03125 67.6044921875 599.235351562 c 128,-1,9
 36.283203125 575.440429688 36.283203125 575.440429688 18.1416015625 532.44140625 c 128,-1,10
 0 489.442382812 0 489.442382812 0 431.5390625 c 2,11,-1
 0 217.65234375 l 2,12,13
 0 159.75 0 159.75 18.1416015625 116.750976562 c 128,-1,14
 36.283203125 73.751953125 36.283203125 73.751953125 67.6044921875 49.9560546875 c 128,-1,15
 98.92578125 26.1611328125 98.92578125 26.1611328125 135.397460938 14.9638671875 c 128,-1,16
 171.868164062 3.7666015625 171.868164062 3.7666015625 213.88671875 3.7666015625 c 2,17,-1
 268.885742188 3.7666015625 l 2,18,19
 310.904296875 3.7666015625 310.904296875 3.7666015625 347.375 14.9638671875 c 128,-1,20
 383.846679688 26.1611328125 383.846679688 26.1611328125 415.16796875 49.9560546875 c 128,-1,21
 446.489257812 73.751953125 446.489257812 73.751953125 464.629882812 116.750976562 c 128,-1,22
 482.771484375 159.75 482.771484375 159.75 482.771484375 217.65234375 c 2,23,-1
 482.771484375 431.5390625 l 2,0,1
429.809570312 217.65234375 m 2,24,25
 429.809570312 138.208984375 429.809570312 138.208984375 389.069335938 97.4697265625 c 128,-1,26
 348.329101562 56.7294921875 348.329101562 56.7294921875 268.885742188 56.7294921875 c 2,27,-1
 213.88671875 56.7294921875 l 2,28,29
 134.443359375 56.7294921875 134.443359375 56.7294921875 93.703125 97.4697265625 c 128,-1,30
 52.962890625 138.208984375 52.962890625 138.208984375 52.962890625 217.65234375 c 2,31,-1
 52.962890625 431.5390625 l 2,32,33
 52.962890625 510.982421875 52.962890625 510.982421875 93.703125 551.72265625 c 128,-1,34
 134.443359375 592.462890625 134.443359375 592.462890625 213.88671875 592.462890625 c 2,35,-1
 268.885742188 592.462890625 l 2,36,37
 348.329101562 592.462890625 348.329101562 592.462890625 389.069335938 551.72265625 c 128,-1,38
 429.809570312 510.982421875 429.809570312 510.982421875 429.809570312 431.5390625 c 2,39,-1
 429.809570312 217.65234375 l 2,24,25
EndSplineSet
EndChar

StartChar: P
Encoding: 80 80 31
Width: 543
VWidth: 1000
Flags: W
LayerCount: 2
Fore
SplineSet
0 645.567382812 m 1,0,-1
 0 3.9091796875 l 1,1,-1
 52.962890625 3.9091796875 l 1,2,-1
 52.962890625 270.756835938 l 1,3,-1
 295.3671875 270.756835938 l 2,4,5
 375.6640625 270.756835938 375.6640625 270.756835938 429.217773438 308.48828125 c 128,-1,6
 482.771484375 346.219726562 482.771484375 346.219726562 482.771484375 405.200195312 c 2,7,-1
 482.771484375 458.162109375 l 2,8,9
 482.771484375 645.567382812 482.771484375 645.567382812 268.885742188 645.567382812 c 2,10,-1
 0 645.567382812 l 1,0,-1
295.3671875 592.604492188 m 2,11,12
 352.715820312 592.604492188 352.715820312 592.604492188 391.262695312 559.4453125 c 128,-1,13
 429.809570312 526.287109375 429.809570312 526.287109375 429.809570312 484.643554688 c 2,14,-1
 429.809570312 431.680664062 l 2,15,16
 429.809570312 374.139648438 429.809570312 374.139648438 389.986328125 349.948242188 c 128,-1,17
 350.163085938 325.756835938 350.163085938 325.756835938 268.885742188 325.756835938 c 2,18,-1
 52.962890625 325.756835938 l 1,19,-1
 52.962890625 592.604492188 l 1,20,-1
 295.3671875 592.604492188 l 2,11,12
EndSplineSet
EndChar

StartChar: Q
Encoding: 81 81 32
Width: 543
VWidth: 1000
Flags: W
LayerCount: 2
Fore
SplineSet
346.233398438 70.59765625 m 1,0,-1
 228.107421875 190.760742188 l 1,1,2
 240.827148438 203.48046875 240.827148438 203.48046875 252.72265625 208.668945312 c 128,-1,3
 264.618164062 213.856445312 264.618164062 213.856445312 272.993164062 213.586914062 c 128,-1,4
 281.369140625 213.317382812 281.369140625 213.317382812 291.211914062 206.70703125 c 128,-1,5
 301.053710938 200.09765625 301.053710938 200.09765625 306.333984375 194.426757812 c 128,-1,6
 311.614257812 188.756835938 311.614257812 188.756835938 320.875 177.590820312 c 128,-1,7
 330.135742188 166.424804688 330.135742188 166.424804688 334.013671875 162.248046875 c 2,8,-1
 393.077148438 103.184570312 l 1,9,10
 427.700195312 140.692382812 427.700195312 140.692382812 427.700195312 217.23828125 c 2,11,-1
 427.700195312 431.087890625 l 2,12,13
 427.700195312 591.985351562 427.700195312 591.985351562 266.803710938 591.985351562 c 2,14,-1
 213.850585938 591.985351562 l 2,15,16
 134.419921875 591.985351562 134.419921875 591.985351562 93.6865234375 551.251953125 c 128,-1,17
 52.953125 510.518554688 52.953125 510.518554688 52.953125 431.087890625 c 2,18,-1
 52.953125 217.23828125 l 2,19,20
 52.953125 56.3408203125 52.953125 56.3408203125 213.850585938 56.3408203125 c 2,21,-1
 266.803710938 56.3408203125 l 2,22,23
 317.720703125 56.3408203125 317.720703125 56.3408203125 346.233398438 70.59765625 c 1,0,-1
431.7734375 66.5244140625 m 1,24,-1
 521.387695312 -25.1259765625 l 1,25,26
 508.670898438 -37.8427734375 508.670898438 -37.8427734375 496.573242188 -42.98046875 c 128,-1,27
 484.474609375 -48.1181640625 484.474609375 -48.1181640625 476.021484375 -48.0048828125 c 128,-1,28
 467.569335938 -47.8916015625 467.569335938 -47.8916015625 457.215820312 -41.01953125 c 128,-1,29
 446.86328125 -34.146484375 446.86328125 -34.146484375 441.700195312 -28.8447265625 c 128,-1,30
 436.537109375 -23.54296875 436.537109375 -23.54296875 426.685546875 -11.90234375 c 128,-1,31
 416.833007812 -0.26171875 416.833007812 -0.26171875 413.444335938 3.3876953125 c 2,32,-1
 386.966796875 29.8642578125 l 1,33,34
 339.307617188 3.3876953125 339.307617188 3.3876953125 266.803710938 3.3876953125 c 2,35,-1
 213.850585938 3.3876953125 l 2,36,37
 171.838867188 3.3876953125 171.838867188 3.3876953125 135.374023438 14.5830078125 c 128,-1,38
 98.9091796875 25.7783203125 98.9091796875 25.7783203125 67.5927734375 49.5693359375 c 128,-1,39
 36.2763671875 73.3603515625 36.2763671875 73.3603515625 18.138671875 116.352539062 c 128,-1,40
 0 159.344726562 0 159.344726562 0 217.23828125 c 2,41,-1
 0 431.087890625 l 2,42,43
 0 488.981445312 0 488.981445312 18.138671875 531.973632812 c 128,-1,44
 36.2763671875 574.965820312 36.2763671875 574.965820312 67.5927734375 598.756835938 c 128,-1,45
 98.9091796875 622.547851562 98.9091796875 622.547851562 135.374023438 633.743164062 c 128,-1,46
 171.838867188 644.938476562 171.838867188 644.938476562 213.850585938 644.938476562 c 2,47,-1
 266.803710938 644.938476562 l 2,48,49
 309.536132812 644.938476562 309.536132812 644.938476562 346.131835938 633.7578125 c 128,-1,50
 382.727539062 622.577148438 382.727539062 622.577148438 413.83203125 598.7421875 c 128,-1,51
 444.936523438 574.908203125 444.936523438 574.908203125 462.794921875 531.98828125 c 128,-1,52
 480.654296875 489.067382812 480.654296875 489.067382812 480.654296875 431.087890625 c 2,53,-1
 480.654296875 217.23828125 l 2,54,55
 480.654296875 118.663085938 480.654296875 118.663085938 431.7734375 66.5244140625 c 1,24,-1
EndSplineSet
EndChar

StartChar: R
Encoding: 82 82 33
Width: 543
VWidth: 1000
Flags: W
LayerCount: 2
Fore
SplineSet
52.9619140625 378.475585938 m 1,0,-1
 52.9619140625 592.362304688 l 1,1,-1
 268.884765625 592.362304688 l 2,2,3
 346.40625 592.362304688 346.40625 592.362304688 388.107421875 555.775390625 c 128,-1,4
 429.80859375 519.1875 429.80859375 519.1875 429.80859375 457.918945312 c 0,5,6
 429.80859375 441.18359375 429.80859375 441.18359375 426.102539062 428.518554688 c 128,-1,7
 422.397460938 415.853515625 422.397460938 415.853515625 417.479492188 407.413085938 c 128,-1,8
 412.5625 398.97265625 412.5625 398.97265625 401.48046875 393.313476562 c 128,-1,9
 390.3984375 387.654296875 390.3984375 387.654296875 382.060546875 384.71484375 c 128,-1,10
 373.72265625 381.775390625 373.72265625 381.775390625 356.333984375 380.342773438 c 128,-1,11
 338.9453125 378.91015625 338.9453125 378.91015625 328.254882812 378.692382812 c 128,-1,12
 317.565429688 378.475585938 317.565429688 378.475585938 295.366210938 378.475585938 c 2,13,-1
 52.9619140625 378.475585938 l 1,0,-1
268.884765625 325.513671875 m 2,14,15
 310.23046875 325.513671875 310.23046875 325.513671875 370.01953125 277.500976562 c 128,-1,16
 429.80859375 229.489257812 429.80859375 229.489257812 429.80859375 191.071289062 c 2,17,-1
 429.80859375 3.666015625 l 1,18,-1
 482.771484375 3.666015625 l 1,19,-1
 482.771484375 217.552734375 l 2,20,21
 482.771484375 235.67578125 482.771484375 235.67578125 472.438476562 251.678710938 c 128,-1,22
 462.10546875 267.680664062 462.10546875 267.680664062 449.0859375 277.57421875 c 128,-1,23
 436.065429688 287.46875 436.065429688 287.46875 421.577148438 300.693359375 c 128,-1,24
 407.088867188 313.918945312 407.088867188 313.918945312 401.291015625 325.513671875 c 1,25,26
 424.716796875 325.513671875 424.716796875 325.513671875 453.744140625 359.818359375 c 128,-1,27
 482.771484375 394.124023438 482.771484375 394.124023438 482.771484375 431.438476562 c 2,28,-1
 482.771484375 484.400390625 l 2,29,30
 482.771484375 506.543945312 482.771484375 506.543945312 471.375 532.268554688 c 128,-1,31
 459.978515625 557.993164062 459.978515625 557.993164062 436.78125 584.342773438 c 128,-1,32
 413.583007812 610.69140625 413.583007812 610.69140625 369.587890625 628.0078125 c 128,-1,33
 325.592773438 645.32421875 325.592773438 645.32421875 268.884765625 645.32421875 c 2,34,-1
 0 645.32421875 l 1,35,-1
 0 3.666015625 l 1,36,-1
 52.9619140625 3.666015625 l 1,37,-1
 52.9619140625 325.513671875 l 1,38,-1
 268.884765625 325.513671875 l 2,14,15
EndSplineSet
EndChar

StartChar: S
Encoding: 83 83 34
Width: 543
VWidth: 1000
Flags: W
LayerCount: 2
Fore
SplineSet
321.84765625 3.388671875 m 2,0,1
 359.26953125 3.388671875 359.26953125 3.388671875 391.295898438 20.88671875 c 128,-1,2
 423.322265625 38.384765625 423.322265625 38.384765625 442.415039062 64.1884765625 c 128,-1,3
 461.5078125 89.9921875 461.5078125 89.9921875 472.139648438 116.625976562 c 128,-1,4
 482.771484375 143.260742188 482.771484375 143.260742188 482.771484375 164.3125 c 2,5,-1
 482.771484375 217.275390625 l 2,6,7
 482.771484375 274.688476562 482.771484375 274.688476562 433.489257812 313.203125 c 128,-1,8
 384.206054688 351.717773438 384.206054688 351.717773438 321.84765625 351.717773438 c 2,9,-1
 187.405273438 351.717773438 l 2,10,11
 54.9990234375 351.717773438 54.9990234375 351.717773438 54.9990234375 457.642578125 c 0,12,13
 54.9990234375 517.443359375 54.9990234375 517.443359375 91.517578125 554.763671875 c 128,-1,14
 128.036132812 592.084960938 128.036132812 592.084960938 187.405273438 592.084960938 c 2,15,-1
 482.771484375 592.084960938 l 1,16,17
 459.692382812 613.881835938 459.692382812 613.881835938 449.096679688 622.317382812 c 128,-1,18
 438.500976562 630.752929688 438.500976562 630.752929688 419.349609375 637.900390625 c 128,-1,19
 400.198242188 645.046875 400.198242188 645.046875 374.809570312 645.046875 c 2,20,-1
 160.923828125 645.046875 l 2,21,22
 123.501953125 645.046875 123.501953125 645.046875 91.4755859375 627.548828125 c 128,-1,23
 59.44921875 610.05078125 59.44921875 610.05078125 40.3564453125 584.247070312 c 128,-1,24
 21.263671875 558.444335938 21.263671875 558.444335938 10.6318359375 531.809570312 c 128,-1,25
 0 505.174804688 0 505.174804688 0 484.123046875 c 2,26,-1
 0 431.161132812 l 2,27,28
 0 373.481445312 0 373.481445312 48.69921875 335.100585938 c 128,-1,29
 97.3984375 296.71875 97.3984375 296.71875 160.923828125 296.71875 c 2,30,-1
 295.366210938 296.71875 l 2,31,32
 427.772460938 296.71875 427.772460938 296.71875 427.772460938 190.793945312 c 0,33,34
 427.772460938 130.993164062 427.772460938 130.993164062 391.25390625 93.6728515625 c 128,-1,35
 354.735351562 56.3515625 354.735351562 56.3515625 295.366210938 56.3515625 c 2,36,-1
 0 56.3515625 l 1,37,38
 23.080078125 34.5537109375 23.080078125 34.5537109375 33.6748046875 26.1181640625 c 128,-1,39
 44.2705078125 17.6826171875 44.2705078125 17.6826171875 63.421875 10.5361328125 c 128,-1,40
 82.57421875 3.388671875 82.57421875 3.388671875 107.961914062 3.388671875 c 2,41,-1
 321.84765625 3.388671875 l 2,0,1
EndSplineSet
EndChar

StartChar: T
Encoding: 84 84 35
Width: 543
VWidth: 1000
Flags: W
LayerCount: 2
Fore
SplineSet
268.885742188 3.39453125 m 1,0,-1
 213.885742188 3.39453125 l 1,1,-1
 213.885742188 592.08984375 l 1,2,-1
 0 592.08984375 l 1,3,-1
 0 645.051757812 l 1,4,-1
 482.771484375 645.051757812 l 1,5,-1
 482.771484375 592.08984375 l 1,6,-1
 268.885742188 592.08984375 l 1,7,-1
 268.885742188 3.39453125 l 1,0,-1
EndSplineSet
EndChar

StartChar: U
Encoding: 85 85 36
Width: 543
VWidth: 1000
Flags: W
LayerCount: 2
Fore
SplineSet
52.962890625 644.91015625 m 1,0,-1
 0 644.91015625 l 1,1,-1
 0 217.137695312 l 2,2,3
 0 159.234375 0 159.234375 18.1416015625 116.235351562 c 128,-1,4
 36.283203125 73.236328125 36.283203125 73.236328125 67.6044921875 49.44140625 c 128,-1,5
 98.92578125 25.6455078125 98.92578125 25.6455078125 135.397460938 14.44921875 c 128,-1,6
 171.868164062 3.251953125 171.868164062 3.251953125 213.88671875 3.251953125 c 2,7,-1
 268.885742188 3.251953125 l 2,8,9
 310.903320312 3.251953125 310.903320312 3.251953125 347.375 14.44921875 c 128,-1,10
 383.845703125 25.6455078125 383.845703125 25.6455078125 415.166992188 49.44140625 c 128,-1,11
 446.489257812 73.236328125 446.489257812 73.236328125 464.629882812 116.235351562 c 128,-1,12
 482.771484375 159.234375 482.771484375 159.234375 482.771484375 217.137695312 c 2,13,-1
 482.771484375 644.91015625 l 1,14,-1
 429.809570312 644.91015625 l 1,15,-1
 429.809570312 217.137695312 l 2,16,17
 429.809570312 137.6953125 429.809570312 137.6953125 389.069335938 96.9541015625 c 128,-1,18
 348.329101562 56.2138671875 348.329101562 56.2138671875 268.885742188 56.2138671875 c 2,19,-1
 213.88671875 56.2138671875 l 2,20,21
 134.443359375 56.2138671875 134.443359375 56.2138671875 93.703125 96.9541015625 c 128,-1,22
 52.962890625 137.694335938 52.962890625 137.694335938 52.962890625 217.137695312 c 2,23,-1
 52.962890625 644.91015625 l 1,0,-1
EndSplineSet
EndChar

StartChar: V
Encoding: 86 86 37
Width: 543
VWidth: 1000
Flags: W
LayerCount: 2
Fore
SplineSet
205.73828125 3.2890625 m 1,0,-1
 277.033203125 3.2890625 l 1,1,-1
 482.771484375 644.946289062 l 1,2,-1
 427.772460938 644.946289062 l 1,3,-1
 242.404296875 56.2509765625 l 1,4,-1
 54.9990234375 644.946289062 l 1,5,-1
 0 644.946289062 l 1,6,-1
 205.73828125 3.2890625 l 1,0,-1
EndSplineSet
EndChar

StartChar: W
Encoding: 87 87 38
Width: 810
VWidth: 1000
Flags: W
LayerCount: 2
Fore
SplineSet
535.759765625 3.98046875 m 1,0,-1
 482.794921875 3.98046875 l 1,1,-1
 401.310546875 234.172851562 l 1,2,-1
 321.86328125 3.98046875 l 1,3,-1
 213.896484375 3.98046875 l 1,4,-1
 0 615.112304688 l 1,5,-1
 0 645.668945312 l 1,6,-1
 52.96484375 645.668945312 l 1,7,-1
 52.96484375 615.112304688 l 1,8,-1
 248.52734375 56.9443359375 l 1,9,-1
 287.232421875 56.9443359375 l 1,10,-1
 482.794921875 615.112304688 l 1,11,-1
 482.794921875 645.668945312 l 1,12,-1
 535.759765625 645.668945312 l 1,13,-1
 535.759765625 609.000976562 l 1,14,-1
 417.607421875 278.989257812 l 1,15,-1
 501.12890625 56.9443359375 l 1,16,-1
 696.690429688 615.112304688 l 1,17,-1
 696.690429688 645.668945312 l 1,18,-1
 749.655273438 645.668945312 l 1,19,-1
 749.655273438 615.112304688 l 1,20,-1
 535.759765625 3.98046875 l 1,0,-1
EndSplineSet
EndChar

StartChar: X
Encoding: 88 88 39
Width: 543
VWidth: 1000
Flags: W
LayerCount: 2
Fore
SplineSet
52.962890625 111.806640625 m 1,0,-1
 52.962890625 3.8447265625 l 1,1,-1
 0 3.8447265625 l 1,2,-1
 0 111.806640625 l 1,3,-1
 213.88671875 352.173828125 l 1,4,-1
 0 592.541015625 l 1,5,-1
 0 645.502929688 l 1,6,-1
 52.962890625 645.502929688 l 1,7,-1
 52.962890625 592.541015625 l 1,8,-1
 242.404296875 380.69140625 l 1,9,-1
 429.809570312 592.541015625 l 1,10,-1
 429.809570312 645.502929688 l 1,11,-1
 482.771484375 645.502929688 l 1,12,-1
 482.771484375 592.541015625 l 1,13,-1
 268.885742188 352.173828125 l 1,14,-1
 482.771484375 111.806640625 l 1,15,-1
 482.771484375 3.8447265625 l 1,16,-1
 429.809570312 3.8447265625 l 1,17,-1
 429.809570312 111.806640625 l 1,18,-1
 242.404296875 321.618164062 l 1,19,-1
 52.962890625 111.806640625 l 1,0,-1
EndSplineSet
EndChar

StartChar: Y
Encoding: 89 89 40
Width: 543
VWidth: 1000
Flags: W
LayerCount: 2
Fore
SplineSet
268.884765625 3.4482421875 m 1,0,-1
 213.885742188 3.4482421875 l 1,1,-1
 213.885742188 270.295898438 l 1,2,3
 172.053710938 270.295898438 172.053710938 270.295898438 135.427734375 281.770507812 c 128,-1,4
 98.80078125 293.245117188 98.80078125 293.245117188 67.5732421875 317.258789062 c 128,-1,5
 36.3447265625 341.272460938 36.3447265625 341.272460938 18.171875 384.130859375 c 128,-1,6
 0 426.98828125 0 426.98828125 0 484.182617188 c 2,7,-1
 0 645.106445312 l 1,8,-1
 52.9619140625 645.106445312 l 1,9,-1
 52.9619140625 484.182617188 l 2,10,11
 52.9619140625 325.295898438 52.9619140625 325.295898438 213.885742188 325.295898438 c 2,12,-1
 268.884765625 325.295898438 l 2,13,14
 429.80859375 325.295898438 429.80859375 325.295898438 429.80859375 484.182617188 c 2,15,-1
 429.80859375 645.106445312 l 1,16,-1
 482.770507812 645.106445312 l 1,17,-1
 482.770507812 484.182617188 l 2,18,19
 482.770507812 384.08203125 482.770507812 384.08203125 425.086914062 327.189453125 c 128,-1,20
 367.404296875 270.295898438 367.404296875 270.295898438 268.884765625 270.295898438 c 1,21,-1
 268.884765625 3.4482421875 l 1,0,-1
EndSplineSet
EndChar

StartChar: Z
Encoding: 90 90 41
Width: 543
VWidth: 1000
Flags: W
LayerCount: 2
Fore
SplineSet
482.771484375 56.0791015625 m 1,0,-1
 482.771484375 3.1171875 l 1,1,-1
 0 3.1171875 l 1,2,-1
 0 111.078125 l 1,3,-1
 429.809570312 536.813476562 l 1,4,-1
 429.809570312 591.8125 l 1,5,-1
 0 591.8125 l 1,6,-1
 0 644.775390625 l 1,7,-1
 482.771484375 644.775390625 l 1,8,-1
 482.771484375 536.813476562 l 1,9,-1
 52.9619140625 111.078125 l 1,10,-1
 52.9619140625 56.0791015625 l 1,11,-1
 482.771484375 56.0791015625 l 1,0,-1
EndSplineSet
EndChar

StartChar: a
Encoding: 97 97 42
Width: 377
VWidth: 1000
Flags: W
LayerCount: 2
Fore
SplineSet
114.408203125 267.046875 m 1,0,-1
 158.56640625 399.520507812 l 1,1,-1
 202.724609375 267.046875 l 1,2,-1
 114.408203125 267.046875 l 1,0,-1
220.7890625 214.860351562 m 1,3,-1
 264.946289062 110.487304688 l 1,4,-1
 264.946289062 4.107421875 l 1,5,-1
 317.1328125 4.107421875 l 1,6,-1
 317.1328125 82.38671875 l 1,7,-1
 184.659179688 477.799804688 l 1,8,-1
 132.47265625 477.799804688 l 1,9,-1
 0 82.38671875 l 1,10,-1
 0 4.107421875 l 1,11,-1
 52.1865234375 4.107421875 l 1,12,-1
 52.1865234375 110.487304688 l 1,13,-1
 96.34375 214.860351562 l 1,14,-1
 220.7890625 214.860351562 l 1,3,-1
EndSplineSet
EndChar

StartChar: b
Encoding: 98 98 43
Width: 378
VWidth: 1000
Flags: W
LayerCount: 2
Fore
SplineSet
52.341796875 425.793945312 m 1,0,-1
 52.341796875 292.92578125 l 1,1,-1
 159.038085938 292.92578125 l 2,2,3
 265.734375 292.92578125 265.734375 292.92578125 265.734375 345.267578125 c 0,4,5
 265.734375 382.397460938 265.734375 382.397460938 233.58984375 404.095703125 c 128,-1,6
 201.444335938 425.793945312 201.444335938 425.793945312 159.038085938 425.793945312 c 2,7,-1
 52.341796875 425.793945312 l 1,0,-1
52.341796875 240.584960938 m 1,8,-1
 52.341796875 55.3759765625 l 1,9,-1
 159.038085938 55.3759765625 l 2,10,11
 265.734375 55.3759765625 265.734375 55.3759765625 265.734375 121.809570312 c 0,12,13
 265.734375 161.3984375 265.734375 161.3984375 219.614257812 200.991210938 c 128,-1,14
 173.495117188 240.584960938 173.495117188 240.584960938 132.8671875 240.584960938 c 2,15,-1
 52.341796875 240.584960938 l 1,8,-1
0 3.0341796875 m 1,16,-1
 0 478.134765625 l 1,17,-1
 106.696289062 478.134765625 l 2,18,19
 163.24609375 478.134765625 163.24609375 478.134765625 206.303710938 465.294921875 c 128,-1,20
 249.361328125 452.456054688 249.361328125 452.456054688 272.540039062 431.807617188 c 128,-1,21
 295.719726562 411.158203125 295.719726562 411.158203125 306.897460938 389.236328125 c 128,-1,22
 318.076171875 367.314453125 318.076171875 367.314453125 318.076171875 345.267578125 c 0,23,24
 318.076171875 308.08203125 318.076171875 308.08203125 286.68359375 287.418945312 c 128,-1,25
 255.291992188 266.755859375 255.291992188 266.755859375 211.379882812 266.755859375 c 1,26,27
 263.803710938 241.215820312 263.803710938 241.215820312 290.940429688 201.5234375 c 128,-1,28
 318.076171875 161.83203125 318.076171875 161.83203125 318.076171875 135.901367188 c 0,29,30
 318.076171875 122.211914062 318.076171875 122.211914062 317.07421875 111.397460938 c 128,-1,31
 316.073242188 100.583007812 316.073242188 100.583007812 307.626953125 78.462890625 c 128,-1,32
 299.180664062 56.341796875 299.180664062 56.341796875 283.995117188 41.6298828125 c 128,-1,33
 268.80859375 26.91796875 268.80859375 26.91796875 236.377929688 14.9765625 c 128,-1,34
 203.947265625 3.0341796875 203.947265625 3.0341796875 159.038085938 3.0341796875 c 2,35,-1
 0 3.0341796875 l 1,16,-1
EndSplineSet
EndChar

StartChar: c
Encoding: 99 99 44
Width: 378
VWidth: 1000
Flags: W
LayerCount: 2
Fore
SplineSet
318.076171875 426.526367188 m 1,0,-1
 159.038085938 426.526367188 l 2,1,2
 101.6640625 426.526367188 101.6640625 426.526367188 77.0029296875 401.865234375 c 128,-1,3
 52.341796875 377.204101562 52.341796875 377.204101562 52.341796875 319.830078125 c 2,4,-1
 52.341796875 162.8046875 l 2,5,6
 52.341796875 101.697265625 52.341796875 101.697265625 75.8369140625 78.90234375 c 128,-1,7
 99.3330078125 56.1083984375 99.3330078125 56.1083984375 159.038085938 56.1083984375 c 2,8,-1
 318.076171875 56.1083984375 l 1,9,10
 295.267578125 34.56640625 295.267578125 34.56640625 284.795898438 26.2294921875 c 128,-1,11
 274.32421875 17.892578125 274.32421875 17.892578125 255.397460938 10.830078125 c 128,-1,12
 236.470703125 3.7666015625 236.470703125 3.7666015625 211.379882812 3.7666015625 c 2,13,-1
 159.038085938 3.7666015625 l 2,14,15
 0 3.7666015625 0 3.7666015625 0 162.8046875 c 2,16,-1
 0 319.830078125 l 2,17,18
 0 478.868164062 0 478.868164062 159.038085938 478.868164062 c 2,19,-1
 211.379882812 478.868164062 l 2,20,21
 236.470703125 478.868164062 236.470703125 478.868164062 255.397460938 471.8046875 c 128,-1,22
 274.32421875 464.7421875 274.32421875 464.7421875 284.795898438 456.405273438 c 128,-1,23
 295.267578125 448.068359375 295.267578125 448.068359375 318.076171875 426.526367188 c 1,0,-1
EndSplineSet
EndChar

StartChar: d
Encoding: 100 100 45
Width: 377
VWidth: 1000
Flags: W
LayerCount: 2
Fore
SplineSet
0 3.9892578125 m 1,0,-1
 0 477.682617188 l 1,1,-1
 106.380859375 477.682617188 l 2,2,3
 163.435546875 477.682617188 163.435546875 477.682617188 205.8046875 459.806640625 c 128,-1,4
 248.173828125 441.931640625 248.173828125 441.931640625 271.62109375 411.068359375 c 128,-1,5
 295.067382812 380.206054688 295.067382812 380.206054688 306.100585938 344.268554688 c 128,-1,6
 317.133789062 308.331054688 317.133789062 308.331054688 317.133789062 266.928710938 c 2,7,-1
 317.133789062 162.555664062 l 2,8,9
 317.133789062 3.9892578125 317.133789062 3.9892578125 158.567382812 3.9892578125 c 2,10,-1
 0 3.9892578125 l 1,0,-1
52.1865234375 425.49609375 m 1,11,-1
 52.1865234375 56.17578125 l 1,12,-1
 158.567382812 56.17578125 l 2,13,14
 211.782226562 56.17578125 211.782226562 56.17578125 238.365234375 87.44921875 c 128,-1,15
 264.947265625 118.72265625 264.947265625 118.72265625 264.947265625 162.555664062 c 2,16,-1
 264.947265625 319.115234375 l 2,17,18
 264.947265625 358.254882812 264.947265625 358.254882812 231.327148438 391.875976562 c 128,-1,19
 197.70703125 425.49609375 197.70703125 425.49609375 158.567382812 425.49609375 c 2,20,-1
 52.1865234375 425.49609375 l 1,11,-1
EndSplineSet
EndChar

StartChar: e
Encoding: 101 101 46
Width: 377
VWidth: 1000
Flags: W
LayerCount: 2
Fore
SplineSet
52.1865234375 55.9921875 m 1,0,-1
 317.133789062 55.9921875 l 1,1,-1
 317.133789062 3.8056640625 l 1,2,-1
 0 3.8056640625 l 1,3,-1
 0 477.499023438 l 1,4,-1
 317.133789062 477.499023438 l 1,5,-1
 317.133789062 425.3125 l 1,6,-1
 52.1865234375 425.3125 l 1,7,-1
 52.1865234375 292.838867188 l 1,8,-1
 317.133789062 292.838867188 l 1,9,-1
 317.133789062 240.65234375 l 1,10,-1
 52.1865234375 240.65234375 l 1,11,-1
 52.1865234375 55.9921875 l 1,0,-1
EndSplineSet
EndChar

StartChar: f
Encoding: 102 102 47
Width: 377
VWidth: 1000
Flags: W
LayerCount: 2
Fore
SplineSet
52.1865234375 240.983398438 m 1,0,-1
 52.1865234375 4.13671875 l 1,1,-1
 0 4.13671875 l 1,2,-1
 0 477.829101562 l 1,3,-1
 317.133789062 477.829101562 l 1,4,-1
 317.133789062 425.642578125 l 1,5,-1
 52.1865234375 425.642578125 l 1,6,-1
 52.1865234375 293.169921875 l 1,7,-1
 317.133789062 293.169921875 l 1,8,-1
 317.133789062 240.983398438 l 1,9,-1
 52.1865234375 240.983398438 l 1,0,-1
EndSplineSet
EndChar

StartChar: g
Encoding: 103 103 48
Width: 378
VWidth: 1000
Flags: W
LayerCount: 2
Fore
SplineSet
265.734375 162.119140625 m 2,0,-1
 265.734375 240.630859375 l 1,1,-1
 159.038085938 240.630859375 l 1,2,-1
 159.038085938 292.97265625 l 1,3,-1
 318.076171875 292.97265625 l 1,4,-1
 318.076171875 55.421875 l 2,5,6
 318.076171875 35.7939453125 318.076171875 35.7939453125 301.719726562 19.4375 c 128,-1,7
 285.362304688 3.0810546875 285.362304688 3.0810546875 265.734375 3.0810546875 c 2,8,-1
 159.038085938 3.0810546875 l 2,9,10
 0 3.0810546875 0 3.0810546875 0 162.119140625 c 2,11,-1
 0 319.143554688 l 2,12,13
 0 478.181640625 0 478.181640625 159.038085938 478.181640625 c 2,14,-1
 318.076171875 478.181640625 l 1,15,-1
 318.076171875 425.83984375 l 1,16,-1
 159.038085938 425.83984375 l 2,17,18
 99.041015625 425.83984375 99.041015625 425.83984375 75.69140625 402.135742188 c 128,-1,19
 52.3408203125 378.432617188 52.3408203125 378.432617188 52.3408203125 319.143554688 c 2,20,-1
 52.3408203125 162.119140625 l 2,21,22
 52.3408203125 102.830078125 52.3408203125 102.830078125 75.69140625 79.1259765625 c 128,-1,23
 99.0419921875 55.421875 99.0419921875 55.421875 159.038085938 55.421875 c 0,24,25
 239.060546875 55.421875 239.060546875 55.421875 252.397460938 68.7587890625 c 128,-1,26
 265.734375 82.095703125 265.734375 82.095703125 265.734375 162.119140625 c 2,0,-1
EndSplineSet
EndChar

StartChar: h
Encoding: 104 104 49
Width: 377
VWidth: 1000
Flags: W
LayerCount: 2
Fore
SplineSet
52.1865234375 241.0078125 m 1,0,-1
 52.1865234375 4.1611328125 l 1,1,-1
 0 4.1611328125 l 1,2,-1
 0 477.853515625 l 1,3,-1
 52.1865234375 477.853515625 l 1,4,-1
 52.1865234375 293.194335938 l 1,5,-1
 264.947265625 293.194335938 l 1,6,-1
 264.947265625 477.853515625 l 1,7,-1
 317.133789062 477.853515625 l 1,8,-1
 317.133789062 4.1611328125 l 1,9,-1
 264.947265625 4.1611328125 l 1,10,-1
 264.947265625 241.0078125 l 1,11,-1
 52.1865234375 241.0078125 l 1,0,-1
EndSplineSet
EndChar

StartChar: i
Encoding: 105 105 50
Width: 112
VWidth: 1000
Flags: W
LayerCount: 2
Fore
SplineSet
0 479.051757812 m 1,0,-1
 52.341796875 479.051757812 l 1,1,-1
 52.341796875 3.9501953125 l 1,2,-1
 0 3.9501953125 l 1,3,-1
 0 479.051757812 l 1,0,-1
EndSplineSet
EndChar

StartChar: j
Encoding: 106 106 51
Width: 378
VWidth: 1000
Flags: W
LayerCount: 2
Fore
SplineSet
265.734375 478.725585938 m 1,0,-1
 318.076171875 478.725585938 l 1,1,-1
 318.076171875 162.663085938 l 2,2,3
 318.076171875 87.318359375 318.076171875 87.318359375 270.650390625 45.4716796875 c 128,-1,4
 223.223632812 3.625 223.223632812 3.625 159.038085938 3.625 c 128,-1,5
 94.8525390625 3.625 94.8525390625 3.625 47.42578125 45.4716796875 c 128,-1,6
 0 87.318359375 0 87.318359375 0 162.663085938 c 2,7,-1
 0 215.004882812 l 1,8,-1
 52.341796875 215.004882812 l 1,9,-1
 52.341796875 162.663085938 l 2,10,11
 52.341796875 106.936523438 52.341796875 106.936523438 83.232421875 81.4521484375 c 128,-1,12
 114.124023438 55.966796875 114.124023438 55.966796875 159.038085938 55.966796875 c 128,-1,13
 203.952148438 55.966796875 203.952148438 55.966796875 234.84375 81.4521484375 c 128,-1,14
 265.734375 106.936523438 265.734375 106.936523438 265.734375 162.663085938 c 2,15,-1
 265.734375 478.725585938 l 1,0,-1
EndSplineSet
EndChar

StartChar: k
Encoding: 107 107 52
Width: 378
VWidth: 1000
Flags: W
LayerCount: 2
Fore
SplineSet
52.341796875 215.1171875 m 1,0,-1
 52.341796875 3.7373046875 l 1,1,-1
 0 3.7373046875 l 1,2,-1
 0 478.838867188 l 1,3,-1
 52.341796875 478.838867188 l 1,4,-1
 52.341796875 267.458984375 l 1,5,-1
 263.721679688 478.838867188 l 1,6,-1
 318.076171875 478.838867188 l 1,7,-1
 106.697265625 267.458984375 l 1,8,-1
 159.038085938 267.458984375 l 2,9,10
 318.076171875 267.458984375 318.076171875 267.458984375 318.076171875 110.43359375 c 2,11,-1
 318.076171875 3.7373046875 l 1,12,-1
 263.721679688 3.7373046875 l 1,13,-1
 263.721679688 162.775390625 l 2,14,15
 263.721679688 182.403320312 263.721679688 182.403320312 247.365234375 198.760742188 c 128,-1,16
 231.0078125 215.1171875 231.0078125 215.1171875 211.379882812 215.1171875 c 2,17,-1
 52.341796875 215.1171875 l 1,0,-1
EndSplineSet
EndChar

StartChar: l
Encoding: 108 108 53
Width: 324
VWidth: 1000
Flags: W
LayerCount: 2
Fore
SplineSet
263.721679688 56.0791015625 m 1,0,-1
 263.721679688 3.7373046875 l 1,1,-1
 0 3.7373046875 l 1,2,-1
 0 478.838867188 l 1,3,-1
 52.341796875 478.838867188 l 1,4,-1
 52.341796875 56.0791015625 l 1,5,-1
 263.721679688 56.0791015625 l 1,0,-1
EndSplineSet
EndChar

StartChar: m
Encoding: 109 109 54
Width: 482
VWidth: 1000
Flags: W
LayerCount: 2
Fore
SplineSet
52.1865234375 321.19921875 m 1,0,-1
 52.1865234375 4.0654296875 l 1,1,-1
 0 4.0654296875 l 1,2,-1
 0 477.758789062 l 1,3,-1
 210.752929688 162.631835938 l 1,4,-1
 421.505859375 477.758789062 l 1,5,-1
 421.505859375 4.0654296875 l 1,6,-1
 369.319335938 4.0654296875 l 1,7,-1
 369.319335938 321.19921875 l 1,8,-1
 210.752929688 84.3525390625 l 1,9,-1
 52.1865234375 321.19921875 l 1,0,-1
EndSplineSet
EndChar

StartChar: n
Encoding: 110 110 55
Width: 377
VWidth: 1000
Flags: W
LayerCount: 2
Fore
SplineSet
52.1865234375 425.666992188 m 1,0,-1
 52.1865234375 4.1611328125 l 1,1,-1
 0 4.1611328125 l 1,2,-1
 0 477.853515625 l 1,3,-1
 106.379882812 477.853515625 l 2,4,5
 163.434570312 477.853515625 163.434570312 477.853515625 205.803710938 459.977539062 c 128,-1,6
 248.172851562 442.102539062 248.172851562 442.102539062 271.620117188 411.240234375 c 128,-1,7
 295.06640625 380.376953125 295.06640625 380.376953125 306.099609375 344.440429688 c 128,-1,8
 317.1328125 308.502929688 317.1328125 308.502929688 317.1328125 267.100585938 c 2,9,-1
 317.1328125 4.1611328125 l 1,10,-1
 264.946289062 4.1611328125 l 1,11,-1
 264.946289062 319.287109375 l 2,12,13
 264.946289062 358.426757812 264.946289062 358.426757812 231.326171875 392.046875 c 128,-1,14
 197.706054688 425.666992188 197.706054688 425.666992188 158.56640625 425.666992188 c 2,15,-1
 52.1865234375 425.666992188 l 1,0,-1
EndSplineSet
EndChar

StartChar: o
Encoding: 111 111 56
Width: 430
VWidth: 1000
Flags: W
LayerCount: 2
Fore
SplineSet
0 319.80078125 m 2,0,-1
 0 162.775390625 l 2,1,2
 0 3.7373046875 0 3.7373046875 159.038085938 3.7373046875 c 2,3,-1
 211.379882812 3.7373046875 l 2,4,5
 370.41796875 3.7373046875 370.41796875 3.7373046875 370.41796875 162.775390625 c 2,6,-1
 370.41796875 319.80078125 l 2,7,8
 370.41796875 478.838867188 370.41796875 478.838867188 211.379882812 478.838867188 c 2,9,-1
 159.038085938 478.838867188 l 2,10,11
 0 478.838867188 0 478.838867188 0 319.80078125 c 2,0,-1
211.379882812 56.0791015625 m 2,12,-1
 159.038085938 56.0791015625 l 2,13,14
 100.153320312 56.0791015625 100.153320312 56.0791015625 76.248046875 79.9853515625 c 128,-1,15
 52.341796875 103.890625 52.341796875 103.890625 52.341796875 162.775390625 c 2,16,-1
 52.341796875 319.80078125 l 2,17,18
 52.341796875 378.685546875 52.341796875 378.685546875 76.248046875 402.590820312 c 128,-1,19
 100.153320312 426.497070312 100.153320312 426.497070312 159.038085938 426.497070312 c 2,20,-1
 211.379882812 426.497070312 l 2,21,22
 268.3671875 426.497070312 268.3671875 426.497070312 293.221679688 401.27734375 c 128,-1,23
 318.076171875 376.057617188 318.076171875 376.057617188 318.076171875 319.80078125 c 2,24,-1
 318.076171875 162.775390625 l 2,25,26
 318.076171875 103.890625 318.076171875 103.890625 294.169921875 79.9853515625 c 128,-1,27
 270.264648438 56.0791015625 270.264648438 56.0791015625 211.379882812 56.0791015625 c 2,12,-1
EndSplineSet
EndChar

StartChar: p
Encoding: 112 112 57
Width: 378
VWidth: 1000
Flags: W
LayerCount: 2
Fore
SplineSet
52.341796875 214.418945312 m 1,0,-1
 52.341796875 3.0390625 l 1,1,-1
 0 3.0390625 l 1,2,-1
 0 478.140625 l 1,3,-1
 106.696289062 478.140625 l 2,4,5
 163.24609375 478.140625 163.24609375 478.140625 206.303710938 465.30078125 c 128,-1,6
 249.361328125 452.461914062 249.361328125 452.461914062 272.540039062 431.8125 c 128,-1,7
 295.719726562 411.1640625 295.719726562 411.1640625 306.897460938 389.2421875 c 128,-1,8
 318.076171875 367.3203125 318.076171875 367.3203125 318.076171875 345.2734375 c 2,9,-1
 318.076171875 319.102539062 l 2,10,11
 318.076171875 276.481445312 318.076171875 276.481445312 276.303710938 245.450195312 c 128,-1,12
 234.530273438 214.418945312 234.530273438 214.418945312 159.038085938 214.418945312 c 2,13,-1
 52.341796875 214.418945312 l 1,0,-1
52.341796875 425.798828125 m 1,14,-1
 52.341796875 266.760742188 l 1,15,-1
 159.038085938 266.760742188 l 2,16,17
 180.055664062 266.760742188 180.055664062 266.760742188 190.870117188 267.23046875 c 128,-1,18
 201.684570312 267.701171875 201.684570312 267.701171875 218.5703125 271.07421875 c 128,-1,19
 235.45703125 274.447265625 235.45703125 274.447265625 243.887695312 281.048828125 c 128,-1,20
 252.319335938 287.650390625 252.319335938 287.650390625 259.026367188 300.8359375 c 128,-1,21
 265.734375 314.021484375 265.734375 314.021484375 265.734375 333.194335938 c 0,22,23
 265.734375 379.541015625 265.734375 379.541015625 234.373046875 402.669921875 c 128,-1,24
 203.01171875 425.798828125 203.01171875 425.798828125 159.038085938 425.798828125 c 2,25,-1
 52.341796875 425.798828125 l 1,14,-1
EndSplineSet
EndChar

StartChar: q
Encoding: 113 113 58
Width: 431
VWidth: 1000
Flags: W
LayerCount: 2
Fore
SplineSet
52.375 159.826171875 m 2,0,1
 52.375 101.197265625 52.375 101.197265625 76.1455078125 78.13671875 c 128,-1,2
 99.9150390625 55.076171875 99.9150390625 55.076171875 159.138671875 55.076171875 c 2,3,-1
 211.513671875 55.076171875 l 2,4,5
 243.744140625 55.076171875 243.744140625 55.076171875 257.845703125 59.10546875 c 1,6,-1
 171.225585938 141.696289062 l 1,7,8
 186.74609375 156.642578125 186.74609375 156.642578125 200.072265625 162.111328125 c 128,-1,9
 213.397460938 167.580078125 213.397460938 167.580078125 225.388671875 162.1328125 c 128,-1,10
 237.379882812 156.686523438 237.379882812 156.686523438 244.130859375 151.635742188 c 128,-1,11
 250.881835938 146.5859375 250.881835938 146.5859375 262.6796875 132.803710938 c 128,-1,12
 274.477539062 119.020507812 274.477539062 119.020507812 277.989257812 115.508789062 c 2,13,-1
 302.162109375 91.3359375 l 1,14,15
 316.263671875 113.897460938 316.263671875 113.897460938 316.263671875 159.826171875 c 2,16,-1
 316.263671875 318.96484375 l 2,17,18
 316.263671875 375.551757812 316.263671875 375.551757812 292.265625 400.639648438 c 128,-1,19
 268.267578125 425.728515625 268.267578125 425.728515625 211.513671875 425.728515625 c 2,20,-1
 159.138671875 425.728515625 l 2,21,22
 100.217773438 425.728515625 100.217773438 425.728515625 76.2958984375 401.807617188 c 128,-1,23
 52.375 377.885742188 52.375 377.885742188 52.375 318.96484375 c 2,24,-1
 52.375 159.826171875 l 2,0,1
0 318.96484375 m 2,25,26
 0 478.103515625 0 478.103515625 159.138671875 478.103515625 c 2,27,-1
 211.513671875 478.103515625 l 2,28,29
 370.65234375 478.103515625 370.65234375 478.103515625 370.65234375 318.96484375 c 2,30,-1
 370.65234375 159.826171875 l 2,31,32
 370.65234375 92.34375 370.65234375 92.34375 340.436523438 53.0615234375 c 1,33,-1
 423.02734375 -25.5 l 1,34,35
 410.44921875 -38.078125 410.44921875 -38.078125 398.483398438 -43.1591796875 c 128,-1,36
 386.517578125 -48.2412109375 386.517578125 -48.2412109375 378.157226562 -48.12890625 c 128,-1,37
 369.796875 -48.0166015625 369.796875 -48.0166015625 359.556640625 -41.2197265625 c 128,-1,38
 349.317382812 -34.4228515625 349.317382812 -34.4228515625 344.2109375 -29.1787109375 c 128,-1,39
 339.104492188 -23.9345703125 339.104492188 -23.9345703125 329.359375 -12.4208984375 c 128,-1,40
 319.615234375 -0.908203125 319.615234375 -0.908203125 316.263671875 2.701171875 c 2,41,-1
 298.133789062 18.81640625 l 1,42,43
 268.586914062 2.701171875 268.586914062 2.701171875 211.513671875 2.701171875 c 2,44,-1
 159.138671875 2.701171875 l 2,45,46
 0 2.701171875 0 2.701171875 0 159.826171875 c 2,47,-1
 0 318.96484375 l 2,25,26
EndSplineSet
EndChar

StartChar: r
Encoding: 114 114 59
Width: 378
VWidth: 1000
Flags: W
LayerCount: 2
Fore
SplineSet
52.341796875 214.389648438 m 1,0,-1
 52.341796875 3.009765625 l 1,1,-1
 0 3.009765625 l 1,2,-1
 0 478.111328125 l 1,3,-1
 106.696289062 478.111328125 l 2,4,5
 162.740234375 478.111328125 162.740234375 478.111328125 206.219726562 460.998046875 c 128,-1,6
 249.69921875 443.884765625 249.69921875 443.884765625 272.625 417.84375 c 128,-1,7
 295.55078125 391.803710938 295.55078125 391.803710938 306.813476562 366.379882812 c 128,-1,8
 318.076171875 340.956054688 318.076171875 340.956054688 318.076171875 319.072265625 c 0,9,10
 318.076171875 276.360351562 318.076171875 276.360351562 297.022460938 245.375 c 128,-1,11
 275.967773438 214.389648438 275.967773438 214.389648438 237.55078125 214.389648438 c 1,12,13
 260.701171875 214.389648438 260.701171875 214.389648438 289.388671875 180.486328125 c 128,-1,14
 318.076171875 146.583007812 318.076171875 146.583007812 318.076171875 109.706054688 c 2,15,-1
 318.076171875 3.009765625 l 1,16,-1
 265.734375 3.009765625 l 1,17,-1
 265.734375 109.706054688 l 2,18,19
 265.734375 145.163085938 265.734375 145.163085938 224.46484375 179.776367188 c 128,-1,20
 183.1953125 214.389648438 183.1953125 214.389648438 159.038085938 214.389648438 c 2,21,-1
 52.341796875 214.389648438 l 1,0,-1
159.038085938 266.731445312 m 2,22,23
 176.541015625 266.731445312 176.541015625 266.731445312 185.557617188 267.014648438 c 128,-1,24
 194.57421875 267.297851562 194.57421875 267.297851562 209.521484375 268.62890625 c 128,-1,25
 224.46875 269.9609375 224.46875 269.9609375 232.456054688 273.314453125 c 128,-1,26
 240.443359375 276.668945312 240.443359375 276.668945312 249.26171875 282.19921875 c 128,-1,27
 258.081054688 287.729492188 258.081054688 287.729492188 261.907226562 297.0625 c 128,-1,28
 265.734375 306.39453125 265.734375 306.39453125 265.734375 319.072265625 c 0,29,30
 265.734375 358.329101562 265.734375 358.329101562 232.014648438 392.048828125 c 128,-1,31
 198.293945312 425.76953125 198.293945312 425.76953125 159.038085938 425.76953125 c 2,32,-1
 52.341796875 425.76953125 l 1,33,-1
 52.341796875 266.731445312 l 1,34,-1
 159.038085938 266.731445312 l 2,22,23
EndSplineSet
EndChar

StartChar: s
Encoding: 115 115 60
Width: 377
VWidth: 1000
Flags: W
LayerCount: 2
Fore
SplineSet
0 56.0751953125 m 1,0,-1
 158.567382812 56.0751953125 l 2,1,2
 202.120117188 56.0751953125 202.120117188 56.0751953125 232.530273438 82.5869140625 c 128,-1,3
 262.940429688 109.09765625 262.940429688 109.09765625 262.940429688 162.455078125 c 0,4,5
 262.940429688 187.7578125 262.940429688 187.7578125 255.061523438 204.150390625 c 128,-1,6
 247.181640625 220.54296875 247.181640625 220.54296875 231.302734375 228.11328125 c 128,-1,7
 215.423828125 235.68359375 215.423828125 235.68359375 199.111328125 238.209960938 c 128,-1,8
 182.797851562 240.735351562 182.797851562 240.735351562 158.567382812 240.735351562 c 0,9,10
 0 240.735351562 0 240.735351562 0 319.014648438 c 2,11,-1
 0 371.201171875 l 2,12,13
 0 414.795898438 0 414.795898438 42.1220703125 446.189453125 c 128,-1,14
 84.2451171875 477.58203125 84.2451171875 477.58203125 158.567382812 477.58203125 c 2,15,-1
 210.75390625 477.58203125 l 2,16,17
 235.76953125 477.58203125 235.76953125 477.58203125 254.640625 470.540039062 c 128,-1,18
 273.51171875 463.498046875 273.51171875 463.498046875 283.952148438 455.185546875 c 128,-1,19
 294.392578125 446.873046875 294.392578125 446.873046875 317.133789062 425.395507812 c 1,20,-1
 158.567382812 425.395507812 l 2,21,22
 115.981445312 425.395507812 115.981445312 425.395507812 85.087890625 404.403320312 c 128,-1,23
 54.1943359375 383.412109375 54.1943359375 383.412109375 54.1943359375 345.108398438 c 0,24,25
 54.1943359375 329.999023438 54.1943359375 329.999023438 61.12890625 319.4453125 c 128,-1,26
 68.064453125 308.891601562 68.064453125 308.891601562 76.7119140625 303.779296875 c 128,-1,27
 85.3603515625 298.666015625 85.3603515625 298.666015625 100.991210938 296.030273438 c 128,-1,28
 116.622070312 293.39453125 116.622070312 293.39453125 125.862304688 293.09375 c 128,-1,29
 135.1015625 292.79296875 135.1015625 292.79296875 151.373046875 292.892578125 c 0,30,31
 156.264648438 292.921875 156.264648438 292.921875 158.567382812 292.921875 c 0,32,33
 239.7578125 292.921875 239.7578125 292.921875 278.4453125 269.198242188 c 128,-1,34
 317.133789062 245.473632812 317.133789062 245.473632812 317.133789062 188.548828125 c 2,35,-1
 317.133789062 136.362304688 l 2,36,37
 317.133789062 74.859375 317.133789062 74.859375 276.249023438 39.3740234375 c 128,-1,38
 235.36328125 3.888671875 235.36328125 3.888671875 158.567382812 3.888671875 c 2,39,-1
 106.380859375 3.888671875 l 2,40,41
 81.365234375 3.888671875 81.365234375 3.888671875 62.494140625 10.9306640625 c 128,-1,42
 43.623046875 17.97265625 43.623046875 17.97265625 33.1826171875 26.28515625 c 128,-1,43
 22.7421875 34.5966796875 22.7421875 34.5966796875 0 56.0751953125 c 1,0,-1
EndSplineSet
EndChar

StartChar: t
Encoding: 116 116 61
Width: 378
VWidth: 1000
Flags: W
LayerCount: 2
Fore
SplineSet
185.208984375 3.0810546875 m 1,0,-1
 132.8671875 3.0810546875 l 1,1,-1
 132.8671875 425.83984375 l 1,2,-1
 0 425.83984375 l 1,3,-1
 0 478.181640625 l 1,4,-1
 318.076171875 478.181640625 l 1,5,-1
 318.076171875 425.83984375 l 1,6,-1
 185.208984375 425.83984375 l 1,7,-1
 185.208984375 3.0810546875 l 1,0,-1
EndSplineSet
EndChar

StartChar: u
Encoding: 117 117 62
Width: 430
VWidth: 1000
Flags: W
LayerCount: 2
Fore
SplineSet
52.341796875 478.73828125 m 1,0,-1
 0 478.73828125 l 1,1,-1
 0 162.674804688 l 2,2,3
 0 3.63671875 0 3.63671875 159.038085938 3.63671875 c 2,4,-1
 211.379882812 3.63671875 l 2,5,6
 370.41796875 3.63671875 370.41796875 3.63671875 370.41796875 162.674804688 c 2,7,-1
 370.41796875 478.73828125 l 1,8,-1
 318.076171875 478.73828125 l 1,9,-1
 318.076171875 162.674804688 l 2,10,11
 318.076171875 103.790039062 318.076171875 103.790039062 294.169921875 79.884765625 c 128,-1,12
 270.264648438 55.978515625 270.264648438 55.978515625 211.379882812 55.978515625 c 2,13,-1
 159.038085938 55.978515625 l 2,14,15
 100.154296875 55.978515625 100.154296875 55.978515625 76.248046875 79.884765625 c 128,-1,16
 52.341796875 103.790039062 52.341796875 103.790039062 52.341796875 162.674804688 c 2,17,-1
 52.341796875 478.73828125 l 1,0,-1
EndSplineSet
EndChar

StartChar: v
Encoding: 118 118 63
Width: 429
VWidth: 1000
Flags: W
LayerCount: 2
Fore
SplineSet
210.75390625 4.232421875 m 1,0,-1
 158.567382812 4.232421875 l 1,1,-1
 0 425.73828125 l 1,2,-1
 0 477.924804688 l 1,3,-1
 52.1865234375 477.924804688 l 1,4,-1
 52.1865234375 407.673828125 l 1,5,-1
 184.66015625 56.4189453125 l 1,6,-1
 317.133789062 407.673828125 l 1,7,-1
 317.133789062 477.924804688 l 1,8,-1
 369.3203125 477.924804688 l 1,9,-1
 369.3203125 425.73828125 l 1,10,-1
 210.75390625 4.232421875 l 1,0,-1
EndSplineSet
EndChar

StartChar: w
Encoding: 119 119 64
Width: 642
VWidth: 1000
Flags: W
LayerCount: 2
Fore
SplineSet
320.02734375 257.34375 m 1,0,-1
 370.345703125 372.0703125 l 1,1,-1
 370.345703125 478.74609375 l 1,2,-1
 318.014648438 478.74609375 l 1,3,-1
 318.014648438 364.01953125 l 1,4,-1
 185.172851562 56.068359375 l 1,5,-1
 52.3310546875 364.01953125 l 1,6,-1
 52.3310546875 478.74609375 l 1,7,-1
 0 478.74609375 l 1,8,-1
 0 372.0703125 l 1,9,-1
 159.006835938 3.7373046875 l 1,10,-1
 211.338867188 3.7373046875 l 1,11,-1
 291.848632812 188.91015625 l 1,12,-1
 370.345703125 3.7373046875 l 1,13,-1
 422.677734375 3.7373046875 l 1,14,-1
 581.684570312 372.0703125 l 1,15,-1
 581.684570312 478.74609375 l 1,16,-1
 529.353515625 478.74609375 l 1,17,-1
 529.353515625 364.01953125 l 1,18,-1
 396.51171875 56.068359375 l 1,19,-1
 320.02734375 257.34375 l 1,0,-1
EndSplineSet
EndChar

StartChar: x
Encoding: 120 120 65
Width: 429
VWidth: 1000
Flags: W
LayerCount: 2
Fore
SplineSet
52.1865234375 82.14453125 m 1,0,-1
 52.1865234375 3.8642578125 l 1,1,-1
 0 3.8642578125 l 1,2,-1
 0 82.14453125 l 1,3,-1
 158.567382812 240.7109375 l 1,4,-1
 0 399.27734375 l 1,5,-1
 0 477.557617188 l 1,6,-1
 52.1865234375 477.557617188 l 1,7,-1
 52.1865234375 399.27734375 l 1,8,-1
 184.66015625 266.8046875 l 1,9,-1
 317.133789062 399.27734375 l 1,10,-1
 317.133789062 477.557617188 l 1,11,-1
 369.3203125 477.557617188 l 1,12,-1
 369.3203125 399.27734375 l 1,13,-1
 210.75390625 240.7109375 l 1,14,-1
 369.3203125 82.14453125 l 1,15,-1
 369.3203125 3.8642578125 l 1,16,-1
 317.133789062 3.8642578125 l 1,17,-1
 317.133789062 82.14453125 l 1,18,-1
 184.66015625 214.618164062 l 1,19,-1
 52.1865234375 82.14453125 l 1,0,-1
EndSplineSet
EndChar

StartChar: y
Encoding: 121 121 66
Width: 430
VWidth: 1000
Flags: W
LayerCount: 2
Fore
SplineSet
211.379882812 3.021484375 m 1,0,-1
 159.038085938 3.021484375 l 1,1,-1
 159.038085938 214.401367188 l 1,2,3
 0 214.401367188 0 214.401367188 0 371.426757812 c 2,4,-1
 0 478.123046875 l 1,5,-1
 52.341796875 478.123046875 l 1,6,-1
 52.341796875 371.426757812 l 2,7,8
 52.341796875 315.05859375 52.341796875 315.05859375 76.4990234375 290.901367188 c 128,-1,9
 100.657226562 266.743164062 100.657226562 266.743164062 159.038085938 266.743164062 c 2,10,-1
 211.379882812 266.743164062 l 2,11,12
 271.270507812 266.743164062 271.270507812 266.743164062 294.673828125 290.145507812 c 128,-1,13
 318.076171875 313.548828125 318.076171875 313.548828125 318.076171875 371.426757812 c 2,14,-1
 318.076171875 478.123046875 l 1,15,-1
 370.41796875 478.123046875 l 1,16,-1
 370.41796875 371.426757812 l 2,17,18
 370.41796875 294.6640625 370.41796875 294.6640625 329.522460938 254.533203125 c 128,-1,19
 288.626953125 214.401367188 288.626953125 214.401367188 211.379882812 214.401367188 c 1,20,-1
 211.379882812 3.021484375 l 1,0,-1
EndSplineSet
EndChar

StartChar: z
Encoding: 122 122 67
Width: 378
VWidth: 1000
Flags: W
LayerCount: 2
Fore
SplineSet
318.076171875 55.9072265625 m 1,0,-1
 318.076171875 3.5654296875 l 1,1,-1
 0 3.5654296875 l 1,2,-1
 0 110.262695312 l 1,3,-1
 265.734375 371.970703125 l 1,4,-1
 265.734375 426.325195312 l 1,5,-1
 0 426.325195312 l 1,6,-1
 0 478.666992188 l 1,7,-1
 318.076171875 478.666992188 l 1,8,-1
 318.076171875 371.970703125 l 1,9,-1
 52.341796875 110.262695312 l 1,10,-1
 52.341796875 55.9072265625 l 1,11,-1
 318.076171875 55.9072265625 l 1,0,-1
EndSplineSet
EndChar

